<?xml version="1.0" encoding="UTF-8"?>
<svg width="48px" height="48px" viewBox="0 0 48 48" version="1.1" xmlns="http://www.w3.org/2000/svg" xmlns:xlink="http://www.w3.org/1999/xlink">
    <!-- Generator: Sketch 41 (35326) - http://www.bohemiancoding.com/sketch -->
    <title>Group 5</title>
    <desc>Created with Sketch.</desc>
    <defs></defs>
    <g id="Page-1" stroke="none" stroke-width="1" fill="none" fill-rule="evenodd">
        <g id="Group-5" fill="#FFFFFF">
            <path d="M40.9026667,40.9013333 L33.784,40.9013333 L33.784,29.7613333 C33.784,27.1053333 33.7386667,23.688 30.0853333,23.688 C26.38,23.688 25.8146667,26.5826667 25.8146667,29.572 L25.8146667,40.9013333 L18.704,40.9013333 L18.704,17.9946667 L25.528,17.9946667 L25.528,21.1266667 L25.6266667,21.1266667 C26.576,19.3253333 28.8986667,17.4266667 32.3613333,17.4266667 C39.5706667,17.4266667 40.9026667,22.1693333 40.9026667,28.3386667 L40.9026667,40.9013333 Z M10.6773333,14.8653333 C8.39066667,14.8653333 6.54666667,13.016 6.54666667,10.736 C6.54666667,8.45733333 8.39066667,6.608 10.6773333,6.608 C12.9546667,6.608 14.8026667,8.45733333 14.8026667,10.736 C14.8026667,13.016 12.9546667,14.8653333 10.6773333,14.8653333 Z M7.112,40.9013333 L14.2386667,40.9013333 L14.2386667,17.9946667 L7.112,17.9946667 L7.112,40.9013333 Z M44.448,0 L3.54,0 C1.58666667,0 0,1.54933333 0,3.46133333 L0,44.536 C0,46.448 1.58666667,48 3.54,48 L44.448,48 C46.4053333,48 47.9986667,46.448 47.9986667,44.536 L47.9986667,3.46133333 C47.9986667,1.54933333 46.4053333,0 44.448,0 L44.448,0 Z" id="Fill-4"></path>
        </g>
    </g>
</svg>