<?xml version="1.0" encoding="UTF-8" standalone="no"?>
<svg viewBox="0 0 130 83" version="1.1" xmlns="http://www.w3.org/2000/svg" xmlns:xlink="http://www.w3.org/1999/xlink" xmlns:sketch="http://www.bohemiancoding.com/sketch/ns">
    <!-- Generator: Sketch 3.2.2 (9983) - http://www.bohemiancoding.com/sketch -->
    <title>card</title>
    <desc>Created with Sketch.</desc>
    <defs></defs>
    <g id="SVG" stroke="none" stroke-width="1" fill="none" fill-rule="evenodd" sketch:type="MSPage">
        <g id="card" sketch:type="MSArtboardGroup">
            <g id="BB-Card-2" sketch:type="MSLayerGroup" transform="translate(2.000000, 2.000000)">
                <rect id="Rectangle-15" stroke="#064B8D" stroke-width="3" fill="#FFFFFF" sketch:type="MSShapeGroup" x="0" y="0" width="126" height="79" rx="4"></rect>
                <g id="BB-Logo" transform="translate(29.000000, 14.000000)" sketch:type="MSShapeGroup">
                    <path d="M27.0652319,22.1375229 C27.1283043,24.0000275 28.5804493,24.8040826 30.2225507,24.8040826 C31.4231449,24.8040826 32.2650145,24.6133486 33.0642609,24.3386422 L33.4431884,26.1164312 C32.5594348,26.497156 31.3383913,26.7721101 29.865058,26.7721101 C26.538971,26.7721101 24.5815072,24.719367 24.5815072,21.5663119 C24.5815072,18.7087706 26.3073768,16.021156 29.5913333,16.021156 C32.9174203,16.021156 34.0118261,18.7724312 34.0118261,21.0369633 C34.0118261,21.5234587 33.9696957,21.9046789 33.9275652,22.1375229 L27.0652319,22.1375229 L27.0652319,22.1375229 Z M31.5702319,20.3176239 C31.5909275,19.3651927 31.1703623,17.7984495 29.4437536,17.7984495 C27.844029,17.7984495 27.1706812,19.2589266 27.0652319,20.3176239 L31.5702319,20.3176239 L31.5702319,20.3176239 Z" id="Fill-1" fill="#004B8E"></path>
                    <path d="M13.358058,26.5608165 C12.1596812,26.5608165 10.800913,26.8097615 10.800913,24.2048807 L10.800913,12.1926055 L13.358058,12.1926055 L13.358058,26.5608165" id="Fill-2" fill="#004B8E"></path>
                    <path d="M62.4124203,12.1926055 L62.4124203,13.0917798 L62.4062609,13.0917798 L62.4062609,17.3543119 L62.3858116,17.3543119 C61.9226232,16.592367 60.8912899,16.021156 59.4802899,16.021156 C57.018,16.021156 54.8708261,18.0741468 54.8915217,21.5234587 C54.8915217,24.6983119 56.8282899,26.7934128 59.2910725,26.7934128 C60.6695507,26.7934128 61.8447681,26.1634954 62.4905217,25.1476514 C62.7945507,26.742633 63.9404493,26.5608165 64.9688261,26.5608165 L64.9688261,12.1926055 L62.4124203,12.1926055 L62.4124203,12.1926055 Z M62.4062609,22.0951651 C62.4062609,22.370367 62.3853188,22.6245138 62.3222464,22.8571101 C62.0697101,23.9787248 61.1433333,24.6983119 60.091058,24.6983119 C58.4489565,24.6983119 57.5230725,23.3227982 57.5230725,21.4184312 C57.5230725,19.5130734 58.4489565,18.0315413 60.112,18.0315413 C61.290913,18.0315413 62.1118406,18.8568991 62.3434348,19.8519358 C62.3853188,20.0634771 62.4062609,20.3384312 62.4062609,20.5499725 L62.4062609,22.0951651 L62.4062609,22.0951651 Z" id="Fill-3" fill="#004B8E"></path>
                    <path d="M34.5816957,12.1926055 L34.5816957,26.5608165 C35.6100725,26.5608165 36.7552319,26.742633 37.0595072,25.1476514 C37.7055072,26.1634954 38.880971,26.7934128 40.2592029,26.7934128 C42.7219855,26.7934128 44.6587536,24.6983119 44.6587536,21.5234587 C44.6794493,18.0741468 42.5322754,16.021156 40.0699855,16.021156 C38.6594783,16.021156 37.6276522,16.592367 37.1644638,17.3543119 L37.1437681,17.3543119 L37.1437681,13.0917798 L37.1381014,13.0917798 L37.1381014,12.1926055 L34.5816957,12.1926055 L34.5816957,12.1926055 Z M37.1437681,20.5499725 C37.1437681,20.3384312 37.1644638,20.0634771 37.2068406,19.8519358 C37.4384348,18.8568991 38.2596087,18.0315413 39.438029,18.0315413 C41.1013188,18.0315413 42.0274493,19.5130734 42.0274493,21.4184312 C42.0274493,23.3227982 41.1013188,24.6983119 39.4592174,24.6983119 C38.406942,24.6983119 37.4805652,23.9787248 37.2275362,22.8571101 C37.1644638,22.6245138 37.1437681,22.370367 37.1437681,22.0951651 L37.1437681,20.5499725 L37.1437681,20.5499725 Z" id="Fill-4" fill="#004B8E"></path>
                    <path d="M47.9796667,26.5608165 C46.7815362,26.5608165 45.4232609,26.8097615 45.4232609,24.2048807 L45.4232609,16.254 L47.9796667,16.254 L47.9796667,26.5608165" id="Fill-5" fill="#004B8E"></path>
                    <path d="M49.2926087,19.5764862 C49.2926087,18.1799174 49.2714203,17.1638257 49.2083478,16.254 L51.4397826,16.254 L51.5449855,18.2012202 L51.608058,18.2012202 C52.1133768,16.7617982 53.3134783,16.021156 54.4288261,16.021156 C54.6813623,16.021156 54.828942,16.0427064 55.0395942,16.0848165 L55.0395942,18.5185321 C54.8077536,18.4761743 54.5761594,18.455367 54.2603043,18.455367 C53.0395072,18.455367 52.1759565,19.2378716 51.9448551,20.4231468 C51.9032174,20.6557431 51.8817826,20.9311927 51.8817826,21.2058991 L51.8817826,22.7223578 L51.8497536,24.4880092 L51.8497536,26.5608165 C50.6523623,26.5608165 49.2935942,26.8097615 49.2935942,24.2048807 L49.2926087,19.5764862" id="Fill-6" fill="#004B8E"></path>
                    <path d="M23.9081594,16.254 L21.3192319,16.254 L21.3192319,22.4758899 C21.3192319,22.7723945 21.2771014,23.0686514 21.1721449,23.2801927 C20.9193623,23.9579174 20.2457681,24.6770092 19.1934928,24.6770092 C17.8251159,24.6770092 17.2771739,23.5766972 17.2771739,21.8625688 L17.2771739,16.254 L14.6884928,16.254 L14.6884928,22.3067064 C14.6884928,25.6717982 16.3934203,26.7934128 18.2459275,26.7934128 C19.9454348,26.7934128 20.9343913,25.9036514 21.4273913,25.2001651 C21.7474348,26.7391651 22.8790435,26.5608165 23.8958406,26.5608165 L23.9081594,16.254" id="Fill-7" fill="#004B8E"></path>
                    <path d="M46.6615507,14.845789 C45.7984928,14.845789 45.2301014,14.2109174 45.2301014,13.4494679 C45.2301014,12.644422 45.8194348,12.0308532 46.6824928,12.0308532 C47.5667391,12.0308532 48.1141884,12.644422 48.1348841,13.4494679 C48.1348841,14.2109174 47.5667391,14.845789 46.6824928,14.845789 L46.6615507,14.845789" id="Fill-8" fill="#004B8E"></path>
                    <path d="M0.0226666667,12.5086789 C0.843594203,12.3385046 2.33836232,12.1908716 3.81169565,12.1908716 C5.70633333,12.1908716 6.90618841,12.4445229 7.85375362,13.1006972 C8.73775362,13.6297982 9.32684058,14.5609266 9.32684058,15.7885596 C9.32684058,17.1009083 8.50591304,18.2851927 6.96926087,18.8568991 L6.96926087,18.9203119 C8.46402899,19.3017798 9.83215942,20.4868073 9.83215942,22.4337798 C9.83215942,23.7032752 9.2852029,24.6983119 8.48497101,25.3752936 C7.47482609,26.2640642 5.81128986,26.708945 3.20117391,26.708945 C1.76947826,26.708945 0.69626087,26.6031743 0.0226666667,26.518211 L0.0226666667,12.5086789 L0.0226666667,12.5086789 Z M2.59065217,18.1378073 L3.91689855,18.1378073 C5.72752174,18.1378073 6.71697101,17.2911468 6.71697101,16.0848165 C6.71697101,14.7303578 5.70633333,14.1162936 4.06423188,14.1162936 C3.30662319,14.1162936 2.86462319,14.1588991 2.59065217,14.2220642 L2.59065217,18.1378073 L2.59065217,18.1378073 Z M2.59065217,24.6770092 C2.92744928,24.7409174 3.36994203,24.7409174 3.95878261,24.7409174 C5.62182609,24.7409174 7.11684058,24.1266055 7.11684058,22.3495596 C7.11684058,20.6983486 5.6642029,20.0211193 3.87476812,20.0211193 L2.59065217,20.0211193 L2.59065217,24.6770092 L2.59065217,24.6770092 Z" id="Fill-9" fill="#004B8E"></path>
                    <path d="M58.3013768,6.88450459 C58.2853623,6.8889633 58.2710725,6.89466055 58.2557971,6.89911927 C57.5262754,8.46189908 56.0645217,9.40590826 54.430058,10.2377064 C55.4778986,11.1789908 57.0672754,11.4532018 58.7268696,10.7546697 C59.1250145,10.5872202 59.0572609,10.5659174 59.5618406,10.3558624 C59.5618406,10.3558624 61.0548841,9.44900917 62.1584058,9.68953211 C61.7888406,7.7873945 60.1694058,6.34722936 58.3013768,6.88450459" id="Fill-10" fill="#064B8D"></path>
                    <path d="M54.806029,3.294 C54.9092609,3.51074312 55.0122464,3.70568807 55.097,3.90608257 C55.3616087,3.14116514 56.1303043,2.66185321 56.9512319,2.8042844 C57.4466957,2.89023853 57.8578986,3.18500917 58.1175797,3.58530275 C58.1873043,3.66952294 58.2348551,3.76266055 58.2641739,3.86298165 C58.3878551,4.15378899 58.4381159,4.48100917 58.3905652,4.81516514 C58.362971,5.00515596 58.3038406,5.18325688 58.2232754,5.34451376 C58.4617681,5.53822018 58.6746377,5.75248624 58.8584348,5.99300917 C58.4496957,6.06311009 58.1983913,6.15922018 57.881058,6.25855046 C57.2104203,8.1346789 55.3707246,9.10965138 53.5482754,9.99668807 C52.766029,10.3771651 51.8541884,11.0744587 51.6686667,11.9803211 C51.2821014,10.6246239 51.5600145,8.32640367 52.2508551,7.11313761 C52.0882464,6.81861468 51.8948406,6.52111927 51.7667246,6.1983578 C51.2899855,4.91598165 51.1113623,3.43197248 51.0495217,2.76093578 C50.977087,1.98041284 50.6609855,1.05498165 49.8218261,0.183550459 C52.1458986,0.671036697 53.0207826,1.29748624 53.0207826,1.29748624 C53.0207826,1.29748624 54.0762609,1.86002752 54.806029,3.294" id="Fill-11" fill="#064B8D"></path>
                    <path d="M65.7695507,13.1395872 C65.7695507,12.5745688 66.2095797,12.1279541 66.7710725,12.1279541 C67.3278841,12.1279541 67.763971,12.5745688 67.763971,13.1348807 C67.763971,13.703367 67.3278841,14.1507248 66.7668841,14.1507248 C66.2095797,14.1507248 65.7695507,13.703367 65.7695507,13.1395872 L65.7695507,13.1395872 Z M67.6218116,13.1395872 C67.6218116,12.6573028 67.2465797,12.2669174 66.7668841,12.2669174 C66.2918696,12.2669174 65.9161449,12.6535872 65.9161449,13.1348807 C65.9161449,13.6211284 66.2918696,14.0077982 66.7710725,14.0077982 C67.2465797,14.0077982 67.6218116,13.6253394 67.6218116,13.1395872 L67.6218116,13.1395872 Z M66.3958406,12.5621835 L66.7885652,12.5621835 C67.0428261,12.5621835 67.1854783,12.6751376 67.1854783,12.883211 C67.1854783,13.0613119 67.0953043,13.1522202 66.9524058,13.1913578 L67.2157826,13.6776055 L67.0305072,13.6776055 L66.779942,13.213156 L66.5685507,13.213156 L66.5685507,13.6776055 L66.3958406,13.6776055 L66.3958406,12.5621835 L66.3958406,12.5621835 Z M66.779942,13.0699817 C66.9272754,13.0699817 67.0176957,13.0263853 67.0176957,12.8918807 C67.0176957,12.7660459 66.9272754,12.7179908 66.7752609,12.7179908 L66.5685507,12.7179908 L66.5685507,13.0699817 L66.779942,13.0699817 L66.779942,13.0699817 Z" id="Fill-12" fill="#004B8E"></path>
                </g>
                <path d="M21.8508403,55.5313383 C21.8031933,55.6062123 21.7691597,55.6810862 21.7691597,55.7763803 C21.7691597,55.9533551 21.932521,56.0962963 22.1026891,56.0962963 C22.3273109,56.0962963 22.4021849,55.9261282 22.497479,55.7627669 L23.4504202,54.1359602 L24.4033613,55.7627669 C24.4986555,55.9261282 24.5735294,56.0962963 24.7981513,56.0962963 C24.9683193,56.0962963 25.1316807,55.9533551 25.1316807,55.7763803 C25.1316807,55.6810862 25.0976471,55.6062123 25.05,55.5313383 L23.8384034,53.4484812 L25.05,51.365624 C25.0976471,51.2907501 25.1316807,51.2158761 25.1316807,51.120582 C25.1316807,50.9436072 24.9683193,50.800666 24.7981513,50.800666 C24.5735294,50.800666 24.4986555,50.9708341 24.4033613,51.1341955 L23.4504202,52.7610022 L22.497479,51.1341955 C22.4021849,50.9708341 22.3273109,50.800666 22.1026891,50.800666 C21.932521,50.800666 21.7691597,50.9436072 21.7691597,51.120582 C21.7691597,51.2158761 21.8031933,51.2907501 21.8508403,51.365624 L23.062437,53.4484812 L21.8508403,55.5313383 Z M26.7516807,55.5313383 C26.7040336,55.6062123 26.67,55.6810862 26.67,55.7763803 C26.67,55.9533551 26.8333613,56.0962963 27.0035294,56.0962963 C27.2281513,56.0962963 27.3030252,55.9261282 27.3983193,55.7627669 L28.3512605,54.1359602 L29.3042017,55.7627669 C29.3994958,55.9261282 29.4743697,56.0962963 29.6989916,56.0962963 C29.8691597,56.0962963 30.032521,55.9533551 30.032521,55.7763803 C30.032521,55.6810862 29.9984874,55.6062123 29.9508403,55.5313383 L28.7392437,53.4484812 L29.9508403,51.365624 C29.9984874,51.2907501 30.032521,51.2158761 30.032521,51.120582 C30.032521,50.9436072 29.8691597,50.800666 29.6989916,50.800666 C29.4743697,50.800666 29.3994958,50.9708341 29.3042017,51.1341955 L28.3512605,52.7610022 L27.3983193,51.1341955 C27.3030252,50.9708341 27.2281513,50.800666 27.0035294,50.800666 C26.8333613,50.800666 26.67,50.9436072 26.67,51.120582 C26.67,51.2158761 26.7040336,51.2907501 26.7516807,51.365624 L27.9632773,53.4484812 L26.7516807,55.5313383 Z M31.652521,55.5313383 C31.6048739,55.6062123 31.5708403,55.6810862 31.5708403,55.7763803 C31.5708403,55.9533551 31.7342017,56.0962963 31.9043697,56.0962963 C32.1289916,56.0962963 32.2038655,55.9261282 32.2991597,55.7627669 L33.2521008,54.1359602 L34.205042,55.7627669 C34.3003361,55.9261282 34.3752101,56.0962963 34.5998319,56.0962963 C34.77,56.0962963 34.9333613,55.9533551 34.9333613,55.7763803 C34.9333613,55.6810862 34.8993277,55.6062123 34.8516807,55.5313383 L33.640084,53.4484812 L34.8516807,51.365624 C34.8993277,51.2907501 34.9333613,51.2158761 34.9333613,51.120582 C34.9333613,50.9436072 34.77,50.800666 34.5998319,50.800666 C34.3752101,50.800666 34.3003361,50.9708341 34.205042,51.1341955 L33.2521008,52.7610022 L32.2991597,51.1341955 C32.2038655,50.9708341 32.1289916,50.800666 31.9043697,50.800666 C31.7342017,50.800666 31.5708403,50.9436072 31.5708403,51.120582 C31.5708403,51.2158761 31.6048739,51.2907501 31.652521,51.365624 L32.8641176,53.4484812 L31.652521,55.5313383 Z M36.5533613,55.5313383 C36.5057143,55.6062123 36.4716807,55.6810862 36.4716807,55.7763803 C36.4716807,55.9533551 36.635042,56.0962963 36.8052101,56.0962963 C37.0298319,56.0962963 37.1047059,55.9261282 37.2,55.7627669 L38.1529412,54.1359602 L39.1058824,55.7627669 C39.2011765,55.9261282 39.2760504,56.0962963 39.5006723,56.0962963 C39.6708403,56.0962963 39.8342017,55.9533551 39.8342017,55.7763803 C39.8342017,55.6810862 39.8001681,55.6062123 39.752521,55.5313383 L38.5409244,53.4484812 L39.752521,51.365624 C39.8001681,51.2907501 39.8342017,51.2158761 39.8342017,51.120582 C39.8342017,50.9436072 39.6708403,50.800666 39.5006723,50.800666 C39.2760504,50.800666 39.2011765,50.9708341 39.1058824,51.1341955 L38.1529412,52.7610022 L37.2,51.1341955 C37.1047059,50.9708341 37.0298319,50.800666 36.8052101,50.800666 C36.635042,50.800666 36.4716807,50.9436072 36.4716807,51.120582 C36.4716807,51.2158761 36.5057143,51.2907501 36.5533613,51.365624 L37.764958,53.4484812 L36.5533613,55.5313383 Z M46.355042,55.5313383 C46.307395,55.6062123 46.2733613,55.6810862 46.2733613,55.7763803 C46.2733613,55.9533551 46.4367227,56.0962963 46.6068908,56.0962963 C46.8315126,56.0962963 46.9063866,55.9261282 47.0016807,55.7627669 L47.9546218,54.1359602 L48.907563,55.7627669 C49.0028571,55.9261282 49.0777311,56.0962963 49.3023529,56.0962963 C49.472521,56.0962963 49.6358824,55.9533551 49.6358824,55.7763803 C49.6358824,55.6810862 49.6018487,55.6062123 49.5542017,55.5313383 L48.342605,53.4484812 L49.5542017,51.365624 C49.6018487,51.2907501 49.6358824,51.2158761 49.6358824,51.120582 C49.6358824,50.9436072 49.472521,50.800666 49.3023529,50.800666 C49.0777311,50.800666 49.0028571,50.9708341 48.907563,51.1341955 L47.9546218,52.7610022 L47.0016807,51.1341955 C46.9063866,50.9708341 46.8315126,50.800666 46.6068908,50.800666 C46.4367227,50.800666 46.2733613,50.9436072 46.2733613,51.120582 C46.2733613,51.2158761 46.307395,51.2907501 46.355042,51.365624 L47.5666387,53.4484812 L46.355042,55.5313383 Z M51.2558824,55.5313383 C51.2082353,55.6062123 51.1742017,55.6810862 51.1742017,55.7763803 C51.1742017,55.9533551 51.337563,56.0962963 51.5077311,56.0962963 C51.7323529,56.0962963 51.8072269,55.9261282 51.902521,55.7627669 L52.8554622,54.1359602 L53.8084034,55.7627669 C53.9036975,55.9261282 53.9785714,56.0962963 54.2031933,56.0962963 C54.3733613,56.0962963 54.5367227,55.9533551 54.5367227,55.7763803 C54.5367227,55.6810862 54.5026891,55.6062123 54.455042,55.5313383 L53.2434454,53.4484812 L54.455042,51.365624 C54.5026891,51.2907501 54.5367227,51.2158761 54.5367227,51.120582 C54.5367227,50.9436072 54.3733613,50.800666 54.2031933,50.800666 C53.9785714,50.800666 53.9036975,50.9708341 53.8084034,51.1341955 L52.8554622,52.7610022 L51.902521,51.1341955 C51.8072269,50.9708341 51.7323529,50.800666 51.5077311,50.800666 C51.337563,50.800666 51.1742017,50.9436072 51.1742017,51.120582 C51.1742017,51.2158761 51.2082353,51.2907501 51.2558824,51.365624 L52.467479,53.4484812 L51.2558824,55.5313383 Z M56.1567227,55.5313383 C56.1090756,55.6062123 56.075042,55.6810862 56.075042,55.7763803 C56.075042,55.9533551 56.2384034,56.0962963 56.4085714,56.0962963 C56.6331933,56.0962963 56.7080672,55.9261282 56.8033613,55.7627669 L57.7563025,54.1359602 L58.7092437,55.7627669 C58.8045378,55.9261282 58.8794118,56.0962963 59.1040336,56.0962963 C59.2742017,56.0962963 59.437563,55.9533551 59.437563,55.7763803 C59.437563,55.6810862 59.4035294,55.6062123 59.3558824,55.5313383 L58.1442857,53.4484812 L59.3558824,51.365624 C59.4035294,51.2907501 59.437563,51.2158761 59.437563,51.120582 C59.437563,50.9436072 59.2742017,50.800666 59.1040336,50.800666 C58.8794118,50.800666 58.8045378,50.9708341 58.7092437,51.1341955 L57.7563025,52.7610022 L56.8033613,51.1341955 C56.7080672,50.9708341 56.6331933,50.800666 56.4085714,50.800666 C56.2384034,50.800666 56.075042,50.9436072 56.075042,51.120582 C56.075042,51.2158761 56.1090756,51.2907501 56.1567227,51.365624 L57.3683193,53.4484812 L56.1567227,55.5313383 Z M61.057563,55.5313383 C61.009916,55.6062123 60.9758824,55.6810862 60.9758824,55.7763803 C60.9758824,55.9533551 61.1392437,56.0962963 61.3094118,56.0962963 C61.5340336,56.0962963 61.6089076,55.9261282 61.7042017,55.7627669 L62.6571429,54.1359602 L63.610084,55.7627669 C63.7053782,55.9261282 63.7802521,56.0962963 64.0048739,56.0962963 C64.175042,56.0962963 64.3384034,55.9533551 64.3384034,55.7763803 C64.3384034,55.6810862 64.3043697,55.6062123 64.2567227,55.5313383 L63.0451261,53.4484812 L64.2567227,51.365624 C64.3043697,51.2907501 64.3384034,51.2158761 64.3384034,51.120582 C64.3384034,50.9436072 64.175042,50.800666 64.0048739,50.800666 C63.7802521,50.800666 63.7053782,50.9708341 63.610084,51.1341955 L62.6571429,52.7610022 L61.7042017,51.1341955 C61.6089076,50.9708341 61.5340336,50.800666 61.3094118,50.800666 C61.1392437,50.800666 60.9758824,50.9436072 60.9758824,51.120582 C60.9758824,51.2158761 61.009916,51.2907501 61.057563,51.365624 L62.2691597,53.4484812 L61.057563,55.5313383 Z M65.9584034,55.5313383 C65.9107563,55.6062123 65.8767227,55.6810862 65.8767227,55.7763803 C65.8767227,55.9533551 66.040084,56.0962963 66.2102521,56.0962963 C66.4348739,56.0962963 66.5097479,55.9261282 66.605042,55.7627669 L67.5579832,54.1359602 L68.5109244,55.7627669 C68.6062185,55.9261282 68.6810924,56.0962963 68.9057143,56.0962963 C69.0758824,56.0962963 69.2392437,55.9533551 69.2392437,55.7763803 C69.2392437,55.6810862 69.2052101,55.6062123 69.157563,55.5313383 L67.9459664,53.4484812 L69.157563,51.365624 C69.2052101,51.2907501 69.2392437,51.2158761 69.2392437,51.120582 C69.2392437,50.9436072 69.0758824,50.800666 68.9057143,50.800666 C68.6810924,50.800666 68.6062185,50.9708341 68.5109244,51.1341955 L67.5579832,52.7610022 L66.605042,51.1341955 C66.5097479,50.9708341 66.4348739,50.800666 66.2102521,50.800666 C66.040084,50.800666 65.8767227,50.9436072 65.8767227,51.120582 C65.8767227,51.2158761 65.9107563,51.2907501 65.9584034,51.365624 L67.17,53.4484812 L65.9584034,55.5313383 Z M70.8592437,55.5313383 C70.8115966,55.6062123 70.777563,55.6810862 70.777563,55.7763803 C70.777563,55.9533551 70.9409244,56.0962963 71.1110924,56.0962963 C71.3357143,56.0962963 71.4105882,55.9261282 71.5058824,55.7627669 L72.4588235,54.1359602 L73.4117647,55.7627669 C73.5070588,55.9261282 73.5819328,56.0962963 73.8065546,56.0962963 C73.9767227,56.0962963 74.140084,55.9533551 74.140084,55.7763803 C74.140084,55.6810862 74.1060504,55.6062123 74.0584034,55.5313383 L72.8468067,53.4484812 L74.0584034,51.365624 C74.1060504,51.2907501 74.140084,51.2158761 74.140084,51.120582 C74.140084,50.9436072 73.9767227,50.800666 73.8065546,50.800666 C73.5819328,50.800666 73.5070588,50.9708341 73.4117647,51.1341955 L72.4588235,52.7610022 L71.5058824,51.1341955 C71.4105882,50.9708341 71.3357143,50.800666 71.1110924,50.800666 C70.9409244,50.800666 70.777563,50.9436072 70.777563,51.120582 C70.777563,51.2158761 70.8115966,51.2907501 70.8592437,51.365624 L72.0708403,53.4484812 L70.8592437,55.5313383 Z M80.6609244,55.5313383 C80.6132773,55.6062123 80.5792437,55.6810862 80.5792437,55.7763803 C80.5792437,55.9533551 80.742605,56.0962963 80.9127731,56.0962963 C81.137395,56.0962963 81.2122689,55.9261282 81.307563,55.7627669 L82.2605042,54.1359602 L83.2134454,55.7627669 C83.3087395,55.9261282 83.3836134,56.0962963 83.6082353,56.0962963 C83.7784034,56.0962963 83.9417647,55.9533551 83.9417647,55.7763803 C83.9417647,55.6810862 83.9077311,55.6062123 83.860084,55.5313383 L82.6484874,53.4484812 L83.860084,51.365624 C83.9077311,51.2907501 83.9417647,51.2158761 83.9417647,51.120582 C83.9417647,50.9436072 83.7784034,50.800666 83.6082353,50.800666 C83.3836134,50.800666 83.3087395,50.9708341 83.2134454,51.1341955 L82.2605042,52.7610022 L81.307563,51.1341955 C81.2122689,50.9708341 81.137395,50.800666 80.9127731,50.800666 C80.742605,50.800666 80.5792437,50.9436072 80.5792437,51.120582 C80.5792437,51.2158761 80.6132773,51.2907501 80.6609244,51.365624 L81.872521,53.4484812 L80.6609244,55.5313383 Z M85.5617647,55.5313383 C85.5141176,55.6062123 85.480084,55.6810862 85.480084,55.7763803 C85.480084,55.9533551 85.6434454,56.0962963 85.8136134,56.0962963 C86.0382353,56.0962963 86.1131092,55.9261282 86.2084034,55.7627669 L87.1613445,54.1359602 L88.1142857,55.7627669 C88.2095798,55.9261282 88.2844538,56.0962963 88.5090756,56.0962963 C88.6792437,56.0962963 88.842605,55.9533551 88.842605,55.7763803 C88.842605,55.6810862 88.8085714,55.6062123 88.7609244,55.5313383 L87.5493277,53.4484812 L88.7609244,51.365624 C88.8085714,51.2907501 88.842605,51.2158761 88.842605,51.120582 C88.842605,50.9436072 88.6792437,50.800666 88.5090756,50.800666 C88.2844538,50.800666 88.2095798,50.9708341 88.1142857,51.1341955 L87.1613445,52.7610022 L86.2084034,51.1341955 C86.1131092,50.9708341 86.0382353,50.800666 85.8136134,50.800666 C85.6434454,50.800666 85.480084,50.9436072 85.480084,51.120582 C85.480084,51.2158761 85.5141176,51.2907501 85.5617647,51.365624 L86.7733613,53.4484812 L85.5617647,55.5313383 Z M90.462605,55.5313383 C90.414958,55.6062123 90.3809244,55.6810862 90.3809244,55.7763803 C90.3809244,55.9533551 90.5442857,56.0962963 90.7144538,56.0962963 C90.9390756,56.0962963 91.0139496,55.9261282 91.1092437,55.7627669 L92.0621849,54.1359602 L93.0151261,55.7627669 C93.1104202,55.9261282 93.1852941,56.0962963 93.409916,56.0962963 C93.580084,56.0962963 93.7434454,55.9533551 93.7434454,55.7763803 C93.7434454,55.6810862 93.7094118,55.6062123 93.6617647,55.5313383 L92.4501681,53.4484812 L93.6617647,51.365624 C93.7094118,51.2907501 93.7434454,51.2158761 93.7434454,51.120582 C93.7434454,50.9436072 93.580084,50.800666 93.409916,50.800666 C93.1852941,50.800666 93.1104202,50.9708341 93.0151261,51.1341955 L92.0621849,52.7610022 L91.1092437,51.1341955 C91.0139496,50.9708341 90.9390756,50.800666 90.7144538,50.800666 C90.5442857,50.800666 90.3809244,50.9436072 90.3809244,51.120582 C90.3809244,51.2158761 90.414958,51.2907501 90.462605,51.365624 L91.6742017,53.4484812 L90.462605,55.5313383 Z M95.3634454,55.5313383 C95.3157983,55.6062123 95.2817647,55.6810862 95.2817647,55.7763803 C95.2817647,55.9533551 95.4451261,56.0962963 95.6152941,56.0962963 C95.839916,56.0962963 95.9147899,55.9261282 96.010084,55.7627669 L96.9630252,54.1359602 L97.9159664,55.7627669 C98.0112605,55.9261282 98.0861345,56.0962963 98.3107563,56.0962963 C98.4809244,56.0962963 98.6442857,55.9533551 98.6442857,55.7763803 C98.6442857,55.6810862 98.6102521,55.6062123 98.562605,55.5313383 L97.3510084,53.4484812 L98.562605,51.365624 C98.6102521,51.2907501 98.6442857,51.2158761 98.6442857,51.120582 C98.6442857,50.9436072 98.4809244,50.800666 98.3107563,50.800666 C98.0861345,50.800666 98.0112605,50.9708341 97.9159664,51.1341955 L96.9630252,52.7610022 L96.010084,51.1341955 C95.9147899,50.9708341 95.839916,50.800666 95.6152941,50.800666 C95.4451261,50.800666 95.2817647,50.9436072 95.2817647,51.120582 C95.2817647,51.2158761 95.3157983,51.2907501 95.3634454,51.365624 L96.575042,53.4484812 L95.3634454,55.5313383 Z M100.264286,55.5313383 C100.216639,55.6062123 100.182605,55.6810862 100.182605,55.7763803 C100.182605,55.9533551 100.345966,56.0962963 100.516134,56.0962963 C100.740756,56.0962963 100.81563,55.9261282 100.910924,55.7627669 L101.863866,54.1359602 L102.816807,55.7627669 C102.912101,55.9261282 102.986975,56.0962963 103.211597,56.0962963 C103.381765,56.0962963 103.545126,55.9533551 103.545126,55.7763803 C103.545126,55.6810862 103.511092,55.6062123 103.463445,55.5313383 L102.251849,53.4484812 L103.463445,51.365624 C103.511092,51.2907501 103.545126,51.2158761 103.545126,51.120582 C103.545126,50.9436072 103.381765,50.800666 103.211597,50.800666 C102.986975,50.800666 102.912101,50.9708341 102.816807,51.1341955 L101.863866,52.7610022 L100.910924,51.1341955 C100.81563,50.9708341 100.740756,50.800666 100.516134,50.800666 C100.345966,50.800666 100.182605,50.9436072 100.182605,51.120582 C100.182605,51.2158761 100.216639,51.2907501 100.264286,51.365624 L101.475882,53.4484812 L100.264286,55.5313383 Z" id="XXXX-XXXXXX-XXXXX" fill="#004B8E" sketch:type="MSShapeGroup"></path>
            </g>
        </g>
    </g>
</svg>