<?xml version="1.0" encoding="utf-8"?>
<!-- Generator: Adobe Illustrator 18.0.0, SVG Export Plug-In . SVG Version: 6.00 Build 0)  -->
<!DOCTYPE svg PUBLIC "-//W3C//DTD SVG 1.1//EN" "http://www.w3.org/Graphics/SVG/1.1/DTD/svg11.dtd">
<svg version="1.1" id="Layer_1" xmlns="http://www.w3.org/2000/svg" xmlns:xlink="http://www.w3.org/1999/xlink" x="0px" y="0px"
	 width="158px" height="166px" viewBox="0 0 78.4 83" enable-background="new 0 0 78.4 83" xml:space="preserve">
<g>
	<defs>
		<rect id="SVGID_1667_" x="0.2" width="78" height="83"/>
	</defs>
	<clipPath id="SVGID_2_">
		<use xlink:href="#SVGID_1667_"  overflow="visible"/>
	</clipPath>
	<g clip-path="url(#SVGID_2_)">
		<defs>
			<path id="SVGID_1669_" d="M25.2,1.2h49.4c1.1,0,1.9,1.8,1.9,4v71c0,2.2-0.9,4-1.9,4H0.2"/>
		</defs>
		<clipPath id="SVGID_4_">
			<use xlink:href="#SVGID_1669_"  overflow="visible"/>
		</clipPath>
		<rect x="-4.8" y="-3.8" clip-path="url(#SVGID_4_)" fill="#FFFFFF" width="86.3" height="89"/>
	</g>
</g>
<g>
	<defs>
		<rect id="SVGID_1671_" x="0.2" width="78" height="83"/>
	</defs>
	<clipPath id="SVGID_6_">
		<use xlink:href="#SVGID_1671_"  overflow="visible"/>
	</clipPath>
	<g clip-path="url(#SVGID_6_)">
		<defs>
			<polygon id="SVGID_1673_" points="25.5,1.2 0.2,80.8 74.5,80.2 76.5,76.8 77,3.2 73.5,0.8 			"/>
		</defs>
		<clipPath id="SVGID_8_">
			<use xlink:href="#SVGID_1673_"  overflow="visible"/>
		</clipPath>
		<g clip-path="url(#SVGID_8_)" enable-background="new    ">
			<g>
				<defs>
					<rect id="SVGID_1675_" x="0.1" y="3.8" width="77" height="77"/>
				</defs>
				<clipPath id="SVGID_10_">
					<use xlink:href="#SVGID_1675_"  overflow="visible"/>
				</clipPath>
				<g clip-path="url(#SVGID_10_)">
					<defs>
						<rect id="SVGID_1677_" x="0.1" y="0.8" width="77" height="80"/>
					</defs>
					<clipPath id="SVGID_12_">
						<use xlink:href="#SVGID_1677_"  overflow="visible"/>
					</clipPath>
					<g opacity="0.8" clip-path="url(#SVGID_12_)" enable-background="new    ">
						<g>
							<defs>
								<rect id="SVGID_1679_" x="0.1" y="3.8" width="77" height="77"/>
							</defs>
							<clipPath id="SVGID_14_">
								<use xlink:href="#SVGID_1679_"  overflow="visible"/>
							</clipPath>
							<g clip-path="url(#SVGID_14_)">
								<defs>
									<rect id="SVGID_1681_" x="0.1" y="3.8" width="77" height="77"/>
								</defs>
								<clipPath id="SVGID_16_">
									<use xlink:href="#SVGID_1681_"  overflow="visible"/>
								</clipPath>
								<g clip-path="url(#SVGID_16_)" enable-background="new    ">
									<g>
										<defs>
											<rect id="SVGID_1683_" x="0.1" y="3.8" width="77" height="77"/>
										</defs>
										<clipPath id="SVGID_18_">
											<use xlink:href="#SVGID_1683_"  overflow="visible"/>
										</clipPath>
										<g clip-path="url(#SVGID_18_)">
											<defs>
												<rect id="SVGID_1685_" x="0.1" y="3.8" width="77" height="77"/>
											</defs>
											<clipPath id="SVGID_20_">
												<use xlink:href="#SVGID_1685_"  overflow="visible"/>
											</clipPath>

												<path clip-path="url(#SVGID_20_)" fill="none" stroke="#E1EECC" stroke-width="1.5055" stroke-linecap="round" stroke-miterlimit="10" d="
												M-22,68.8c2.5,0,2.5,2,5.1,2c2.5,0,2.5-2,5.1-2s2.5,2,5.1,2 M-5.3,68.8c2.5,0,2.5,2,5.1,2c2.5,0,2.5-2,5.1-2s2.5,2,5.1,2
												 M-13.7,76.8c2.5,0,2.5,2,5.1,2c2.5,0,2.5-2,5.1-2c2.5,0,2.5,2,5.1,2 M-13.7,72.6c2.5,0,2.5,2,5.1,2c2.5,0,2.5-2,5.1-2
												c2.5,0,2.5,2,5.1,2 M-22,80.7c2.5,0,2.5,2,5.1,2c2.5,0,2.5-2,5.1-2s2.5,2,5.1,2 M-5.3,80.7c2.5,0,2.5,2,5.1,2
												c2.5,0,2.5-2,5.1-2s2.5,2,5.1,2"/>

												<path clip-path="url(#SVGID_20_)" fill="none" stroke="#E1EECC" stroke-width="1.5055" stroke-linecap="round" stroke-miterlimit="10" d="
												M-5.4,68.8c2.5,0,2.5,2,5.1,2c2.5,0,2.5-2,5.1-2s2.5,2,5.1,2 M11.4,68.8c2.5,0,2.5,2,5.1,2c2.5,0,2.5-2,5.1-2
												s2.5,2,5.1,2 M3,76.8c2.5,0,2.5,2,5.1,2c2.5,0,2.5-2,5.1-2c2.5,0,2.5,2,5.1,2 M3,72.6c2.5,0,2.5,2,5.1,2
												c2.5,0,2.5-2,5.1-2c2.5,0,2.5,2,5.1,2 M-5.4,80.7c2.5,0,2.5,2,5.1,2c2.5,0,2.5-2,5.1-2s2.5,2,5.1,2 M11.4,80.7
												c2.5,0,2.5,2,5.1,2c2.5,0,2.5-2,5.1-2s2.5,2,5.1,2"/>

												<path clip-path="url(#SVGID_20_)" fill="none" stroke="#E1EECC" stroke-width="1.5055" stroke-linecap="round" stroke-miterlimit="10" d="
												M11.3,68.8c2.5,0,2.5,2,5.1,2c2.5,0,2.5-2,5.1-2s2.5,2,5.1,2 M28,68.8c2.5,0,2.5,2,5.1,2c2.5,0,2.5-2,5.1-2s2.5,2,5.1,2
												 M19.7,76.8c2.5,0,2.5,2,5.1,2c2.5,0,2.5-2,5.1-2c2.5,0,2.5,2,5.1,2 M19.7,72.6c2.5,0,2.5,2,5.1,2c2.5,0,2.5-2,5.1-2
												c2.5,0,2.5,2,5.1,2 M11.3,80.7c2.5,0,2.5,2,5.1,2c2.5,0,2.5-2,5.1-2s2.5,2,5.1,2 M28,80.7c2.5,0,2.5,2,5.1,2
												c2.5,0,2.5-2,5.1-2s2.5,2,5.1,2"/>

												<path clip-path="url(#SVGID_20_)" fill="none" stroke="#E1EECC" stroke-width="1.5055" stroke-linecap="round" stroke-miterlimit="10" d="
												M28,68.8c2.5,0,2.5,2,5.1,2c2.5,0,2.5-2,5.1-2s2.5,2,5.1,2 M44.7,68.8c2.5,0,2.5,2,5.1,2c2.5,0,2.5-2,5.1-2s2.5,2,5.1,2
												 M36.3,76.8c2.5,0,2.5,2,5.1,2c2.5,0,2.5-2,5.1-2c2.5,0,2.5,2,5.1,2 M36.3,72.6c2.5,0,2.5,2,5.1,2c2.5,0,2.5-2,5.1-2
												c2.5,0,2.5,2,5.1,2 M28,80.7c2.5,0,2.5,2,5.1,2c2.5,0,2.5-2,5.1-2s2.5,2,5.1,2 M44.7,80.7c2.5,0,2.5,2,5.1,2
												c2.5,0,2.5-2,5.1-2s2.5,2,5.1,2"/>

												<path clip-path="url(#SVGID_20_)" fill="none" stroke="#E1EECC" stroke-width="1.5055" stroke-linecap="round" stroke-miterlimit="10" d="
												M44.6,68.8c2.5,0,2.5,2,5.1,2c2.5,0,2.5-2,5.1-2s2.5,2,5.1,2 M61.4,68.8c2.5,0,2.5,2,5.1,2c2.5,0,2.5-2,5.1-2
												s2.5,2,5.1,2 M53,76.8c2.5,0,2.5,2,5.1,2c2.5,0,2.5-2,5.1-2c2.5,0,2.5,2,5.1,2 M53,72.6c2.5,0,2.5,2,5.1,2
												c2.5,0,2.5-2,5.1-2c2.5,0,2.5,2,5.1,2 M44.6,80.7c2.5,0,2.5,2,5.1,2c2.5,0,2.5-2,5.1-2s2.5,2,5.1,2 M61.4,80.7
												c2.5,0,2.5,2,5.1,2c2.5,0,2.5-2,5.1-2s2.5,2,5.1,2"/>

												<path clip-path="url(#SVGID_20_)" fill="none" stroke="#E1EECC" stroke-width="1.5055" stroke-linecap="round" stroke-miterlimit="10" d="
												M61.3,68.8c2.5,0,2.5,2,5.1,2c2.5,0,2.5-2,5.1-2s2.5,2,5.1,2 M78,68.8c2.5,0,2.5,2,5.1,2c2.5,0,2.5-2,5.1-2s2.5,2,5.1,2
												 M69.7,76.8c2.5,0,2.5,2,5.1,2c2.5,0,2.5-2,5.1-2c2.5,0,2.5,2,5.1,2 M69.7,72.6c2.5,0,2.5,2,5.1,2c2.5,0,2.5-2,5.1-2
												c2.5,0,2.5,2,5.1,2 M61.3,80.7c2.5,0,2.5,2,5.1,2c2.5,0,2.5-2,5.1-2s2.5,2,5.1,2 M78,80.7c2.5,0,2.5,2,5.1,2
												c2.5,0,2.5-2,5.1-2s2.5,2,5.1,2"/>

												<path clip-path="url(#SVGID_20_)" fill="none" stroke="#E1EECC" stroke-width="1.5055" stroke-linecap="round" stroke-miterlimit="10" d="
												M78,68.8c2.5,0,2.5,2,5.1,2c2.5,0,2.5-2,5.1-2s2.5,2,5.1,2 M94.7,68.8c2.5,0,2.5,2,5.1,2c2.5,0,2.5-2,5.1-2s2.5,2,5.1,2
												 M86.3,76.8c2.5,0,2.5,2,5.1,2c2.5,0,2.5-2,5.1-2s2.5,2,5.1,2 M86.3,72.6c2.5,0,2.5,2,5.1,2c2.5,0,2.5-2,5.1-2
												s2.5,2,5.1,2 M78,80.7c2.5,0,2.5,2,5.1,2c2.5,0,2.5-2,5.1-2s2.5,2,5.1,2 M94.7,80.7c2.5,0,2.5,2,5.1,2c2.5,0,2.5-2,5.1-2
												s2.5,2,5.1,2"/>

												<path clip-path="url(#SVGID_20_)" fill="none" stroke="#E1EECC" stroke-width="1.5055" stroke-linecap="round" stroke-miterlimit="10" d="
												M-22,52.8c2.5,0,2.5,2,5.1,2c2.5,0,2.5-2,5.1-2s2.5,2,5.1,2 M-5.3,52.8c2.5,0,2.5,2,5.1,2c2.5,0,2.5-2,5.1-2s2.5,2,5.1,2
												 M-13.7,60.8c2.5,0,2.5,2,5.1,2c2.5,0,2.5-2,5.1-2c2.5,0,2.5,2,5.1,2 M-13.7,56.6c2.5,0,2.5,2,5.1,2c2.5,0,2.5-2,5.1-2
												c2.5,0,2.5,2,5.1,2 M-22,64.7c2.5,0,2.5,2,5.1,2c2.5,0,2.5-2,5.1-2s2.5,2,5.1,2 M-5.3,64.7c2.5,0,2.5,2,5.1,2
												c2.5,0,2.5-2,5.1-2s2.5,2,5.1,2"/>

												<path clip-path="url(#SVGID_20_)" fill="none" stroke="#E1EECC" stroke-width="1.5055" stroke-linecap="round" stroke-miterlimit="10" d="
												M-5.4,52.8c2.5,0,2.5,2,5.1,2c2.5,0,2.5-2,5.1-2s2.5,2,5.1,2 M11.4,52.8c2.5,0,2.5,2,5.1,2c2.5,0,2.5-2,5.1-2
												s2.5,2,5.1,2 M3,60.8c2.5,0,2.5,2,5.1,2c2.5,0,2.5-2,5.1-2c2.5,0,2.5,2,5.1,2 M3,56.6c2.5,0,2.5,2,5.1,2
												c2.5,0,2.5-2,5.1-2c2.5,0,2.5,2,5.1,2 M-5.4,64.7c2.5,0,2.5,2,5.1,2c2.5,0,2.5-2,5.1-2s2.5,2,5.1,2 M11.4,64.7
												c2.5,0,2.5,2,5.1,2c2.5,0,2.5-2,5.1-2s2.5,2,5.1,2"/>

												<path clip-path="url(#SVGID_20_)" fill="none" stroke="#E1EECC" stroke-width="1.5055" stroke-linecap="round" stroke-miterlimit="10" d="
												M11.3,52.8c2.5,0,2.5,2,5.1,2c2.5,0,2.5-2,5.1-2s2.5,2,5.1,2 M28,52.8c2.5,0,2.5,2,5.1,2c2.5,0,2.5-2,5.1-2s2.5,2,5.1,2
												 M19.7,60.8c2.5,0,2.5,2,5.1,2c2.5,0,2.5-2,5.1-2c2.5,0,2.5,2,5.1,2 M19.7,56.6c2.5,0,2.5,2,5.1,2c2.5,0,2.5-2,5.1-2
												c2.5,0,2.5,2,5.1,2 M11.3,64.7c2.5,0,2.5,2,5.1,2c2.5,0,2.5-2,5.1-2s2.5,2,5.1,2 M28,64.7c2.5,0,2.5,2,5.1,2
												c2.5,0,2.5-2,5.1-2s2.5,2,5.1,2"/>

												<path clip-path="url(#SVGID_20_)" fill="none" stroke="#E1EECC" stroke-width="1.5055" stroke-linecap="round" stroke-miterlimit="10" d="
												M28,52.8c2.5,0,2.5,2,5.1,2c2.5,0,2.5-2,5.1-2s2.5,2,5.1,2 M44.7,52.8c2.5,0,2.5,2,5.1,2c2.5,0,2.5-2,5.1-2s2.5,2,5.1,2
												 M36.3,60.8c2.5,0,2.5,2,5.1,2c2.5,0,2.5-2,5.1-2c2.5,0,2.5,2,5.1,2 M36.3,56.6c2.5,0,2.5,2,5.1,2c2.5,0,2.5-2,5.1-2
												c2.5,0,2.5,2,5.1,2 M28,64.7c2.5,0,2.5,2,5.1,2c2.5,0,2.5-2,5.1-2s2.5,2,5.1,2 M44.7,64.7c2.5,0,2.5,2,5.1,2
												c2.5,0,2.5-2,5.1-2s2.5,2,5.1,2"/>

												<path clip-path="url(#SVGID_20_)" fill="none" stroke="#E1EECC" stroke-width="1.5055" stroke-linecap="round" stroke-miterlimit="10" d="
												M44.6,52.8c2.5,0,2.5,2,5.1,2c2.5,0,2.5-2,5.1-2s2.5,2,5.1,2 M61.4,52.8c2.5,0,2.5,2,5.1,2c2.5,0,2.5-2,5.1-2
												s2.5,2,5.1,2 M53,60.8c2.5,0,2.5,2,5.1,2c2.5,0,2.5-2,5.1-2c2.5,0,2.5,2,5.1,2 M53,56.6c2.5,0,2.5,2,5.1,2
												c2.5,0,2.5-2,5.1-2c2.5,0,2.5,2,5.1,2 M44.6,64.7c2.5,0,2.5,2,5.1,2c2.5,0,2.5-2,5.1-2s2.5,2,5.1,2 M61.4,64.7
												c2.5,0,2.5,2,5.1,2c2.5,0,2.5-2,5.1-2s2.5,2,5.1,2"/>

												<path clip-path="url(#SVGID_20_)" fill="none" stroke="#E1EECC" stroke-width="1.5055" stroke-linecap="round" stroke-miterlimit="10" d="
												M61.3,52.8c2.5,0,2.5,2,5.1,2c2.5,0,2.5-2,5.1-2s2.5,2,5.1,2 M78,52.8c2.5,0,2.5,2,5.1,2c2.5,0,2.5-2,5.1-2s2.5,2,5.1,2
												 M69.7,60.8c2.5,0,2.5,2,5.1,2c2.5,0,2.5-2,5.1-2c2.5,0,2.5,2,5.1,2 M69.7,56.6c2.5,0,2.5,2,5.1,2c2.5,0,2.5-2,5.1-2
												c2.5,0,2.5,2,5.1,2 M61.3,64.7c2.5,0,2.5,2,5.1,2c2.5,0,2.5-2,5.1-2s2.5,2,5.1,2 M78,64.7c2.5,0,2.5,2,5.1,2
												c2.5,0,2.5-2,5.1-2s2.5,2,5.1,2"/>

												<path clip-path="url(#SVGID_20_)" fill="none" stroke="#E1EECC" stroke-width="1.5055" stroke-linecap="round" stroke-miterlimit="10" d="
												M78,52.8c2.5,0,2.5,2,5.1,2c2.5,0,2.5-2,5.1-2s2.5,2,5.1,2 M94.7,52.8c2.5,0,2.5,2,5.1,2c2.5,0,2.5-2,5.1-2s2.5,2,5.1,2
												 M86.3,60.8c2.5,0,2.5,2,5.1,2c2.5,0,2.5-2,5.1-2s2.5,2,5.1,2 M86.3,56.6c2.5,0,2.5,2,5.1,2c2.5,0,2.5-2,5.1-2
												s2.5,2,5.1,2 M78,64.7c2.5,0,2.5,2,5.1,2c2.5,0,2.5-2,5.1-2s2.5,2,5.1,2 M94.7,64.7c2.5,0,2.5,2,5.1,2c2.5,0,2.5-2,5.1-2
												s2.5,2,5.1,2"/>

												<path clip-path="url(#SVGID_20_)" fill="none" stroke="#E1EECC" stroke-width="1.5055" stroke-linecap="round" stroke-miterlimit="10" d="
												M-22,36.8c2.5,0,2.5,2,5.1,2c2.5,0,2.5-2,5.1-2s2.5,2,5.1,2 M-5.3,36.8c2.5,0,2.5,2,5.1,2c2.5,0,2.5-2,5.1-2s2.5,2,5.1,2
												 M-13.7,44.8c2.5,0,2.5,2,5.1,2c2.5,0,2.5-2,5.1-2c2.5,0,2.5,2,5.1,2 M-13.7,40.6c2.5,0,2.5,2,5.1,2c2.5,0,2.5-2,5.1-2
												c2.5,0,2.5,2,5.1,2 M-22,48.7c2.5,0,2.5,2,5.1,2c2.5,0,2.5-2,5.1-2s2.5,2,5.1,2 M-5.3,48.7c2.5,0,2.5,2,5.1,2
												c2.5,0,2.5-2,5.1-2s2.5,2,5.1,2"/>

												<path clip-path="url(#SVGID_20_)" fill="none" stroke="#E1EECC" stroke-width="1.5055" stroke-linecap="round" stroke-miterlimit="10" d="
												M-5.4,36.8c2.5,0,2.5,2,5.1,2c2.5,0,2.5-2,5.1-2s2.5,2,5.1,2 M11.4,36.8c2.5,0,2.5,2,5.1,2c2.5,0,2.5-2,5.1-2
												s2.5,2,5.1,2 M3,44.8c2.5,0,2.5,2,5.1,2c2.5,0,2.5-2,5.1-2c2.5,0,2.5,2,5.1,2 M3,40.6c2.5,0,2.5,2,5.1,2
												c2.5,0,2.5-2,5.1-2c2.5,0,2.5,2,5.1,2 M-5.4,48.7c2.5,0,2.5,2,5.1,2c2.5,0,2.5-2,5.1-2s2.5,2,5.1,2 M11.4,48.7
												c2.5,0,2.5,2,5.1,2c2.5,0,2.5-2,5.1-2s2.5,2,5.1,2"/>

												<path clip-path="url(#SVGID_20_)" fill="none" stroke="#E1EECC" stroke-width="1.5055" stroke-linecap="round" stroke-miterlimit="10" d="
												M11.3,36.8c2.5,0,2.5,2,5.1,2c2.5,0,2.5-2,5.1-2s2.5,2,5.1,2 M28,36.8c2.5,0,2.5,2,5.1,2c2.5,0,2.5-2,5.1-2s2.5,2,5.1,2
												 M19.7,44.8c2.5,0,2.5,2,5.1,2c2.5,0,2.5-2,5.1-2c2.5,0,2.5,2,5.1,2 M19.7,40.6c2.5,0,2.5,2,5.1,2c2.5,0,2.5-2,5.1-2
												c2.5,0,2.5,2,5.1,2 M11.3,48.7c2.5,0,2.5,2,5.1,2c2.5,0,2.5-2,5.1-2s2.5,2,5.1,2 M28,48.7c2.5,0,2.5,2,5.1,2
												c2.5,0,2.5-2,5.1-2s2.5,2,5.1,2"/>

												<path clip-path="url(#SVGID_20_)" fill="none" stroke="#E1EECC" stroke-width="1.5055" stroke-linecap="round" stroke-miterlimit="10" d="
												M28,36.8c2.5,0,2.5,2,5.1,2c2.5,0,2.5-2,5.1-2s2.5,2,5.1,2 M44.7,36.8c2.5,0,2.5,2,5.1,2c2.5,0,2.5-2,5.1-2s2.5,2,5.1,2
												 M36.3,44.8c2.5,0,2.5,2,5.1,2c2.5,0,2.5-2,5.1-2c2.5,0,2.5,2,5.1,2 M36.3,40.6c2.5,0,2.5,2,5.1,2c2.5,0,2.5-2,5.1-2
												c2.5,0,2.5,2,5.1,2 M28,48.7c2.5,0,2.5,2,5.1,2c2.5,0,2.5-2,5.1-2s2.5,2,5.1,2 M44.7,48.7c2.5,0,2.5,2,5.1,2
												c2.5,0,2.5-2,5.1-2s2.5,2,5.1,2"/>

												<path clip-path="url(#SVGID_20_)" fill="none" stroke="#E1EECC" stroke-width="1.5055" stroke-linecap="round" stroke-miterlimit="10" d="
												M44.6,36.8c2.5,0,2.5,2,5.1,2c2.5,0,2.5-2,5.1-2s2.5,2,5.1,2 M61.4,36.8c2.5,0,2.5,2,5.1,2c2.5,0,2.5-2,5.1-2
												s2.5,2,5.1,2 M53,44.8c2.5,0,2.5,2,5.1,2c2.5,0,2.5-2,5.1-2c2.5,0,2.5,2,5.1,2 M53,40.6c2.5,0,2.5,2,5.1,2
												c2.5,0,2.5-2,5.1-2c2.5,0,2.5,2,5.1,2 M44.6,48.7c2.5,0,2.5,2,5.1,2c2.5,0,2.5-2,5.1-2s2.5,2,5.1,2 M61.4,48.7
												c2.5,0,2.5,2,5.1,2c2.5,0,2.5-2,5.1-2s2.5,2,5.1,2"/>

												<path clip-path="url(#SVGID_20_)" fill="none" stroke="#E1EECC" stroke-width="1.5055" stroke-linecap="round" stroke-miterlimit="10" d="
												M61.3,36.8c2.5,0,2.5,2,5.1,2c2.5,0,2.5-2,5.1-2s2.5,2,5.1,2 M78,36.8c2.5,0,2.5,2,5.1,2c2.5,0,2.5-2,5.1-2s2.5,2,5.1,2
												 M69.7,44.8c2.5,0,2.5,2,5.1,2c2.5,0,2.5-2,5.1-2c2.5,0,2.5,2,5.1,2 M69.7,40.6c2.5,0,2.5,2,5.1,2c2.5,0,2.5-2,5.1-2
												c2.5,0,2.5,2,5.1,2 M61.3,48.7c2.5,0,2.5,2,5.1,2c2.5,0,2.5-2,5.1-2s2.5,2,5.1,2 M78,48.7c2.5,0,2.5,2,5.1,2
												c2.5,0,2.5-2,5.1-2s2.5,2,5.1,2"/>

												<path clip-path="url(#SVGID_20_)" fill="none" stroke="#E1EECC" stroke-width="1.5055" stroke-linecap="round" stroke-miterlimit="10" d="
												M78,36.8c2.5,0,2.5,2,5.1,2c2.5,0,2.5-2,5.1-2s2.5,2,5.1,2 M94.7,36.8c2.5,0,2.5,2,5.1,2c2.5,0,2.5-2,5.1-2s2.5,2,5.1,2
												 M86.3,44.8c2.5,0,2.5,2,5.1,2c2.5,0,2.5-2,5.1-2s2.5,2,5.1,2 M86.3,40.6c2.5,0,2.5,2,5.1,2c2.5,0,2.5-2,5.1-2
												s2.5,2,5.1,2 M78,48.7c2.5,0,2.5,2,5.1,2c2.5,0,2.5-2,5.1-2s2.5,2,5.1,2 M94.7,48.7c2.5,0,2.5,2,5.1,2c2.5,0,2.5-2,5.1-2
												s2.5,2,5.1,2"/>

												<path clip-path="url(#SVGID_20_)" fill="none" stroke="#E1EECC" stroke-width="1.5055" stroke-linecap="round" stroke-miterlimit="10" d="
												M-22,20.8c2.5,0,2.5,2,5.1,2c2.5,0,2.5-2,5.1-2s2.5,2,5.1,2 M-5.3,20.8c2.5,0,2.5,2,5.1,2c2.5,0,2.5-2,5.1-2s2.5,2,5.1,2
												 M-13.7,28.8c2.5,0,2.5,2,5.1,2c2.5,0,2.5-2,5.1-2c2.5,0,2.5,2,5.1,2 M-13.7,24.6c2.5,0,2.5,2,5.1,2c2.5,0,2.5-2,5.1-2
												c2.5,0,2.5,2,5.1,2 M-22,32.7c2.5,0,2.5,2,5.1,2c2.5,0,2.5-2,5.1-2s2.5,2,5.1,2 M-5.3,32.7c2.5,0,2.5,2,5.1,2
												c2.5,0,2.5-2,5.1-2s2.5,2,5.1,2"/>

												<path clip-path="url(#SVGID_20_)" fill="none" stroke="#E1EECC" stroke-width="1.5055" stroke-linecap="round" stroke-miterlimit="10" d="
												M-5.4,20.8c2.5,0,2.5,2,5.1,2c2.5,0,2.5-2,5.1-2s2.5,2,5.1,2 M11.4,20.8c2.5,0,2.5,2,5.1,2c2.5,0,2.5-2,5.1-2
												s2.5,2,5.1,2 M3,28.8c2.5,0,2.5,2,5.1,2c2.5,0,2.5-2,5.1-2c2.5,0,2.5,2,5.1,2 M3,24.6c2.5,0,2.5,2,5.1,2
												c2.5,0,2.5-2,5.1-2c2.5,0,2.5,2,5.1,2 M-5.4,32.7c2.5,0,2.5,2,5.1,2c2.5,0,2.5-2,5.1-2s2.5,2,5.1,2 M11.4,32.7
												c2.5,0,2.5,2,5.1,2c2.5,0,2.5-2,5.1-2s2.5,2,5.1,2"/>

												<path clip-path="url(#SVGID_20_)" fill="none" stroke="#E1EECC" stroke-width="1.5055" stroke-linecap="round" stroke-miterlimit="10" d="
												M11.3,20.8c2.5,0,2.5,2,5.1,2c2.5,0,2.5-2,5.1-2s2.5,2,5.1,2 M28,20.8c2.5,0,2.5,2,5.1,2c2.5,0,2.5-2,5.1-2s2.5,2,5.1,2
												 M19.7,28.8c2.5,0,2.5,2,5.1,2c2.5,0,2.5-2,5.1-2c2.5,0,2.5,2,5.1,2 M19.7,24.6c2.5,0,2.5,2,5.1,2c2.5,0,2.5-2,5.1-2
												c2.5,0,2.5,2,5.1,2 M11.3,32.7c2.5,0,2.5,2,5.1,2c2.5,0,2.5-2,5.1-2s2.5,2,5.1,2 M28,32.7c2.5,0,2.5,2,5.1,2
												c2.5,0,2.5-2,5.1-2s2.5,2,5.1,2"/>

												<path clip-path="url(#SVGID_20_)" fill="none" stroke="#E1EECC" stroke-width="1.5055" stroke-linecap="round" stroke-miterlimit="10" d="
												M28,20.8c2.5,0,2.5,2,5.1,2c2.5,0,2.5-2,5.1-2s2.5,2,5.1,2 M44.7,20.8c2.5,0,2.5,2,5.1,2c2.5,0,2.5-2,5.1-2s2.5,2,5.1,2
												 M36.3,28.8c2.5,0,2.5,2,5.1,2c2.5,0,2.5-2,5.1-2c2.5,0,2.5,2,5.1,2 M36.3,24.6c2.5,0,2.5,2,5.1,2c2.5,0,2.5-2,5.1-2
												c2.5,0,2.5,2,5.1,2 M28,32.7c2.5,0,2.5,2,5.1,2c2.5,0,2.5-2,5.1-2s2.5,2,5.1,2 M44.7,32.7c2.5,0,2.5,2,5.1,2
												c2.5,0,2.5-2,5.1-2s2.5,2,5.1,2"/>

												<path clip-path="url(#SVGID_20_)" fill="none" stroke="#E1EECC" stroke-width="1.5055" stroke-linecap="round" stroke-miterlimit="10" d="
												M44.6,20.8c2.5,0,2.5,2,5.1,2c2.5,0,2.5-2,5.1-2s2.5,2,5.1,2 M61.4,20.8c2.5,0,2.5,2,5.1,2c2.5,0,2.5-2,5.1-2
												s2.5,2,5.1,2 M53,28.8c2.5,0,2.5,2,5.1,2c2.5,0,2.5-2,5.1-2c2.5,0,2.5,2,5.1,2 M53,24.6c2.5,0,2.5,2,5.1,2
												c2.5,0,2.5-2,5.1-2c2.5,0,2.5,2,5.1,2 M44.6,32.7c2.5,0,2.5,2,5.1,2c2.5,0,2.5-2,5.1-2s2.5,2,5.1,2 M61.4,32.7
												c2.5,0,2.5,2,5.1,2c2.5,0,2.5-2,5.1-2s2.5,2,5.1,2"/>

												<path clip-path="url(#SVGID_20_)" fill="none" stroke="#E1EECC" stroke-width="1.5055" stroke-linecap="round" stroke-miterlimit="10" d="
												M61.3,20.8c2.5,0,2.5,2,5.1,2c2.5,0,2.5-2,5.1-2s2.5,2,5.1,2 M78,20.8c2.5,0,2.5,2,5.1,2c2.5,0,2.5-2,5.1-2s2.5,2,5.1,2
												 M69.7,28.8c2.5,0,2.5,2,5.1,2c2.5,0,2.5-2,5.1-2c2.5,0,2.5,2,5.1,2 M69.7,24.6c2.5,0,2.5,2,5.1,2c2.5,0,2.5-2,5.1-2
												c2.5,0,2.5,2,5.1,2 M61.3,32.7c2.5,0,2.5,2,5.1,2c2.5,0,2.5-2,5.1-2s2.5,2,5.1,2 M78,32.7c2.5,0,2.5,2,5.1,2
												c2.5,0,2.5-2,5.1-2s2.5,2,5.1,2"/>

												<path clip-path="url(#SVGID_20_)" fill="none" stroke="#E1EECC" stroke-width="1.5055" stroke-linecap="round" stroke-miterlimit="10" d="
												M-5.4,4.8c2.5,0,2.5,2,5.1,2c2.5,0,2.5-2,5.1-2s2.5,2,5.1,2 M11.4,4.8c2.5,0,2.5,2,5.1,2c2.5,0,2.5-2,5.1-2s2.5,2,5.1,2
												 M3,12.8c2.5,0,2.5,2,5.1,2c2.5,0,2.5-2,5.1-2c2.5,0,2.5,2,5.1,2 M3,8.6c2.5,0,2.5,2,5.1,2c2.5,0,2.5-2,5.1-2
												c2.5,0,2.5,2,5.1,2 M-5.4,16.7c2.5,0,2.5,2,5.1,2c2.5,0,2.5-2,5.1-2s2.5,2,5.1,2 M11.4,16.7c2.5,0,2.5,2,5.1,2
												c2.5,0,2.5-2,5.1-2s2.5,2,5.1,2"/>

												<path clip-path="url(#SVGID_20_)" fill="none" stroke="#E1EECC" stroke-width="1.5055" stroke-linecap="round" stroke-miterlimit="10" d="
												M11.3,4.8c2.5,0,2.5,2,5.1,2c2.5,0,2.5-2,5.1-2s2.5,2,5.1,2 M28,4.8c2.5,0,2.5,2,5.1,2c2.5,0,2.5-2,5.1-2s2.5,2,5.1,2
												 M19.7,12.8c2.5,0,2.5,2,5.1,2c2.5,0,2.5-2,5.1-2c2.5,0,2.5,2,5.1,2 M19.7,8.6c2.5,0,2.5,2,5.1,2c2.5,0,2.5-2,5.1-2
												c2.5,0,2.5,2,5.1,2 M11.3,16.7c2.5,0,2.5,2,5.1,2c2.5,0,2.5-2,5.1-2s2.5,2,5.1,2 M28,16.7c2.5,0,2.5,2,5.1,2
												c2.5,0,2.5-2,5.1-2s2.5,2,5.1,2"/>

												<path clip-path="url(#SVGID_20_)" fill="none" stroke="#E1EECC" stroke-width="1.5055" stroke-linecap="round" stroke-miterlimit="10" d="
												M28,4.8c2.5,0,2.5,2,5.1,2c2.5,0,2.5-2,5.1-2s2.5,2,5.1,2 M44.7,4.8c2.5,0,2.5,2,5.1,2c2.5,0,2.5-2,5.1-2s2.5,2,5.1,2
												 M36.3,12.8c2.5,0,2.5,2,5.1,2c2.5,0,2.5-2,5.1-2c2.5,0,2.5,2,5.1,2 M36.3,8.6c2.5,0,2.5,2,5.1,2c2.5,0,2.5-2,5.1-2
												c2.5,0,2.5,2,5.1,2 M28,16.7c2.5,0,2.5,2,5.1,2c2.5,0,2.5-2,5.1-2s2.5,2,5.1,2 M44.7,16.7c2.5,0,2.5,2,5.1,2
												c2.5,0,2.5-2,5.1-2s2.5,2,5.1,2"/>

												<path clip-path="url(#SVGID_20_)" fill="none" stroke="#E1EECC" stroke-width="1.5055" stroke-linecap="round" stroke-miterlimit="10" d="
												M44.6,4.8c2.5,0,2.5,2,5.1,2c2.5,0,2.5-2,5.1-2s2.5,2,5.1,2 M61.4,4.8c2.5,0,2.5,2,5.1,2c2.5,0,2.5-2,5.1-2s2.5,2,5.1,2
												 M53,12.8c2.5,0,2.5,2,5.1,2c2.5,0,2.5-2,5.1-2c2.5,0,2.5,2,5.1,2 M53,8.6c2.5,0,2.5,2,5.1,2c2.5,0,2.5-2,5.1-2
												c2.5,0,2.5,2,5.1,2 M44.6,16.7c2.5,0,2.5,2,5.1,2c2.5,0,2.5-2,5.1-2s2.5,2,5.1,2 M61.4,16.7c2.5,0,2.5,2,5.1,2
												c2.5,0,2.5-2,5.1-2s2.5,2,5.1,2"/>

												<path clip-path="url(#SVGID_20_)" fill="none" stroke="#E1EECC" stroke-width="1.5055" stroke-linecap="round" stroke-miterlimit="10" d="
												M61.3,4.8c2.5,0,2.5,2,5.1,2c2.5,0,2.5-2,5.1-2s2.5,2,5.1,2 M78,4.8c2.5,0,2.5,2,5.1,2c2.5,0,2.5-2,5.1-2s2.5,2,5.1,2
												 M69.7,12.8c2.5,0,2.5,2,5.1,2c2.5,0,2.5-2,5.1-2c2.5,0,2.5,2,5.1,2 M69.7,8.6c2.5,0,2.5,2,5.1,2c2.5,0,2.5-2,5.1-2
												c2.5,0,2.5,2,5.1,2 M61.3,16.7c2.5,0,2.5,2,5.1,2c2.5,0,2.5-2,5.1-2s2.5,2,5.1,2 M78,16.7c2.5,0,2.5,2,5.1,2
												c2.5,0,2.5-2,5.1-2s2.5,2,5.1,2"/>
										</g>
									</g>
								</g>
							</g>
						</g>
					</g>
				</g>
			</g>
		</g>
	</g>
</g>
<g>
	<defs>
		<rect id="SVGID_1687_" x="0.2" width="78" height="83"/>
	</defs>
	<clipPath id="SVGID_22_">
		<use xlink:href="#SVGID_1687_"  overflow="visible"/>
	</clipPath>
	<path clip-path="url(#SVGID_22_)" fill="none" stroke="#8FC857" stroke-width="3" stroke-miterlimit="10" d="M24.2,2h48
		c2.2,0,4,1.8,4,4v71c0,2.2-1.8,4-4,4h-72"/>

		<line clip-path="url(#SVGID_22_)" fill="none" stroke="#8FC857" stroke-linecap="round" stroke-miterlimit="10" x1="33.8" y1="20.8" x2="68.1" y2="20.8"/>

		<line clip-path="url(#SVGID_22_)" fill="none" stroke="#8FC857" stroke-linecap="round" stroke-miterlimit="10" x1="9.8" y1="70.2" x2="68.7" y2="70.5"/>
</g>
<g>
	<defs>
		<rect id="SVGID_1689_" x="0.2" width="78" height="83"/>
	</defs>
	<clipPath id="SVGID_24_">
		<use xlink:href="#SVGID_1689_"  overflow="visible"/>
	</clipPath>
	<g clip-path="url(#SVGID_24_)">
		<defs>
			<path id="SVGID_1691_" d="M45.7,38.3c0-1.1,0.9-2,2-2h18.7c1.1,0,2,0.9,2,2v7.9c0,1.1-0.9,2-2,2H47.7c-1.1,0-2-0.9-2-2V38.3z"/>
		</defs>
		<clipPath id="SVGID_26_">
			<use xlink:href="#SVGID_1691_"  overflow="visible"/>
		</clipPath>
		<rect x="40.7" y="31.3" clip-path="url(#SVGID_26_)" fill="#FFFFFF" width="32.7" height="21.9"/>
	</g>
</g>
<g>
	<defs>
		<rect id="SVGID_1693_" x="0.2" width="78" height="83"/>
	</defs>
	<clipPath id="SVGID_28_">
		<use xlink:href="#SVGID_1693_"  overflow="visible"/>
	</clipPath>

		<line clip-path="url(#SVGID_28_)" fill="none" stroke="#8FC857" stroke-linecap="round" stroke-miterlimit="10" x1="15.9" y1="47.2" x2="42.1" y2="47.2"/>
</g>
<g>
	<defs>
		<rect id="SVGID_1695_" x="0.2" width="78" height="83"/>
	</defs>
	<clipPath id="SVGID_30_">
		<use xlink:href="#SVGID_1695_"  overflow="visible"/>
	</clipPath>
	<g clip-path="url(#SVGID_30_)">
		<defs>
			<path id="SVGID_1697_" d="M50.9,38.7c-0.4,0-0.8,0.1-1,0.3c-0.2,0.2-0.3,0.5-0.3,0.8c0,0.2,0,0.3,0.1,0.5
				c0.1,0.1,0.2,0.3,0.3,0.3c0.1,0.1,0.3,0.2,0.4,0.2c0.1,0.1,0.3,0.1,0.5,0.2V38.7z M51.3,44.4c0.2,0,0.4,0,0.6-0.1
				c0.2,0,0.3-0.1,0.5-0.2c0.1-0.1,0.3-0.2,0.3-0.4c0.1-0.2,0.1-0.3,0.1-0.5c0-0.2,0-0.3-0.1-0.5s-0.1-0.2-0.2-0.3
				c-0.1-0.1-0.2-0.2-0.3-0.3c-0.1-0.1-0.3-0.1-0.4-0.2s-0.3-0.1-0.5-0.2V44.4z M50.9,44.9c-0.2,0-0.4-0.1-0.6-0.1
				c-0.2-0.1-0.4-0.1-0.5-0.2c-0.1-0.1-0.3-0.2-0.4-0.3c-0.1-0.1-0.2-0.2-0.3-0.3c-0.1-0.1-0.2-0.2-0.2-0.3l0.5-0.3
				c0.2,0.3,0.4,0.6,0.7,0.7c0.3,0.2,0.6,0.3,1,0.3v-2.7c-0.2-0.1-0.4-0.1-0.5-0.2c-0.1-0.1-0.3-0.1-0.5-0.2
				c-0.2-0.1-0.3-0.2-0.4-0.2c-0.1-0.1-0.2-0.2-0.3-0.3c-0.1-0.1-0.2-0.2-0.2-0.4s-0.1-0.3-0.1-0.5c0-0.5,0.2-0.8,0.5-1.2
				c0.3-0.3,0.8-0.5,1.4-0.5v-0.7h0.5v0.7c0.8,0.1,1.4,0.5,1.8,1.1l-0.5,0.3c-0.2-0.3-0.4-0.5-0.6-0.7c-0.2-0.1-0.5-0.2-0.8-0.3v2.5
				c0.2,0.1,0.3,0.1,0.5,0.1c0.1,0,0.3,0.1,0.4,0.2c0.2,0.1,0.3,0.1,0.4,0.2c0.1,0.1,0.2,0.1,0.3,0.2c0.1,0.1,0.2,0.2,0.3,0.3
				c0.1,0.1,0.1,0.2,0.2,0.4c0,0.2,0.1,0.3,0.1,0.5c0,0.5-0.2,0.9-0.6,1.2s-0.9,0.5-1.5,0.5v0.8h-0.5V44.9z"/>
		</defs>
		<clipPath id="SVGID_32_">
			<use xlink:href="#SVGID_1697_"  overflow="visible"/>
		</clipPath>
		<rect x="43.7" y="32.5" clip-path="url(#SVGID_32_)" fill="#8FC857" width="14.7" height="18.2"/>
	</g>
</g>
<g>
	<defs>
		<rect id="SVGID_1699_" x="0.2" width="78" height="83"/>
	</defs>
	<clipPath id="SVGID_34_">
		<use xlink:href="#SVGID_1699_"  overflow="visible"/>
	</clipPath>
	<g clip-path="url(#SVGID_34_)">
		<defs>
			<path id="SVGID_1701_" d="M65.4,18.1c0,0.2,0.1,0.3,0.3,0.3c0.2,0,0.3-0.1,0.3-0.3v-1.4l1.8,1.5c0.1,0.1,0.2,0.2,0.3,0.2
				c0.2,0,0.3-0.1,0.3-0.3c0-0.1-0.1-0.2-0.2-0.3L66.1,16l2.1-1.8c0.1-0.1,0.1-0.2,0.1-0.3c0-0.2-0.1-0.3-0.3-0.3
				c-0.1,0-0.2,0.1-0.2,0.1L66,15.4V14c0-0.2-0.1-0.3-0.3-0.3c-0.2,0-0.3,0.1-0.3,0.3V18.1z M63.7,18.4c0.1,0,0.3-0.1,0.3-0.3
				c0-0.2-0.2-0.3-0.3-0.3h-1c-0.3,0-0.3,0-0.5-0.3l-0.5-1c-0.1-0.1-0.1-0.2-0.1-0.4c0-0.2,0-0.3,0.1-0.5l0.5-1
				c0.1-0.2,0.2-0.3,0.4-0.3h1c0.1,0,0.3-0.1,0.3-0.3c0-0.2-0.2-0.3-0.3-0.3h-1c-0.5,0-0.7,0.2-0.9,0.6l-0.6,1.1
				c-0.1,0.2-0.2,0.4-0.2,0.7c0,0.2,0.1,0.4,0.2,0.6l0.6,1.1c0.2,0.4,0.5,0.6,0.9,0.6H63.7z M57.3,17.8v-1.4h0.9
				c0.2,0,0.3-0.1,0.3-0.3c0-0.2-0.1-0.3-0.3-0.3h-0.9v-1.4h2.1c0.2,0,0.3-0.1,0.3-0.3c0-0.2-0.1-0.3-0.3-0.3h-2.7v4.7h2.7
				c0.2,0,0.3-0.1,0.3-0.3c0-0.2-0.1-0.3-0.3-0.3H57.3z M54.8,16.3v1.7c0,0.2,0.1,0.3,0.3,0.3s0.3-0.1,0.3-0.3V14
				c0-0.2-0.1-0.3-0.3-0.3s-0.3,0.1-0.3,0.3v1.7H53V14c0-0.2-0.1-0.3-0.3-0.3c-0.2,0-0.3,0.1-0.3,0.3v4.1c0,0.2,0.1,0.3,0.3,0.3
				c0.2,0,0.3-0.1,0.3-0.3v-1.7H54.8z M50.8,18.4c0.1,0,0.3-0.1,0.3-0.3c0-0.2-0.2-0.3-0.3-0.3h-1c-0.3,0-0.3,0-0.5-0.3l-0.5-1
				c-0.1-0.1-0.1-0.2-0.1-0.4c0-0.2,0-0.3,0.1-0.5l0.5-1c0.1-0.2,0.2-0.3,0.4-0.3h1c0.1,0,0.3-0.1,0.3-0.3c0-0.2-0.2-0.3-0.3-0.3h-1
				c-0.5,0-0.7,0.2-0.9,0.6l-0.6,1.1c-0.1,0.2-0.2,0.4-0.2,0.7c0,0.2,0.1,0.4,0.2,0.6l0.6,1.1c0.2,0.4,0.5,0.6,0.9,0.6H50.8z
				 M45.6,16.1l1.2-1.5V14c0-0.2-0.1-0.3-0.3-0.3s-0.3,0.1-0.3,0.3v0.4l-0.9,1.1l-0.9-1.1V14c0-0.2-0.1-0.3-0.3-0.3
				s-0.3,0.1-0.3,0.3v0.6l1.2,1.5v1.9c0,0.2,0.1,0.3,0.3,0.3c0.2,0,0.3-0.1,0.3-0.3V16.1z M41.4,16.7h-0.9l0.5-1.6h0L41.4,16.7z
				 M39.5,18.1c0,0.1,0.1,0.3,0.3,0.3c0.2,0,0.3-0.2,0.3-0.3l0.2-0.7h1.3l0.2,0.7c0,0.1,0.1,0.3,0.3,0.3c0.2,0,0.3-0.2,0.3-0.3
				L41.3,14c0-0.2-0.1-0.3-0.3-0.3c-0.2,0-0.3,0.1-0.3,0.3L39.5,18.1z M35.7,14.3h1.3c0.4,0,0.4,0.1,0.4,0.4v0.8
				c0,0.3-0.1,0.4-0.4,0.4h-1.3V14.3z M35.7,16.6h1.3c0.3,0,0.6,0,0.8-0.3c0.2-0.2,0.2-0.5,0.2-0.8v-0.8c0-0.3,0-0.5-0.3-0.8
				c-0.2-0.2-0.4-0.2-0.7-0.2h-2v4.4c0,0.2,0.1,0.3,0.3,0.3s0.3-0.1,0.3-0.3V16.6z"/>
		</defs>
		<clipPath id="SVGID_36_">
			<use xlink:href="#SVGID_1701_"  overflow="visible"/>
		</clipPath>
		<rect x="30.1" y="8.7" clip-path="url(#SVGID_36_)" fill="#8FC857" width="43.2" height="14.7"/>
	</g>
</g>
<g>
	<defs>
		<rect id="SVGID_1703_" x="0.2" width="78" height="83"/>
	</defs>
	<clipPath id="SVGID_38_">
		<use xlink:href="#SVGID_1703_"  overflow="visible"/>
	</clipPath>
	<g clip-path="url(#SVGID_38_)">
		<defs>
			<path id="SVGID_1705_" d="M68.4,65.1c0.1,0,0.2,0,0.3-0.1c0.1-0.1,0.1-0.2,0.1-0.3v-0.3c0-0.1,0-0.2-0.1-0.3
				C68.7,64,68.6,64,68.4,64H68c-0.1,0-0.2,0-0.3,0.1c-0.1,0.1-0.1,0.2-0.1,0.3v0.3c0,0.1,0,0.2,0.1,0.3c0.1,0.1,0.2,0.1,0.3,0.1
				H68.4z M68.4,67.1c0.1,0,0.2,0,0.3-0.1c0.1-0.1,0.1-0.2,0.1-0.3v-0.3c0-0.1,0-0.2-0.1-0.3C68.7,66,68.6,66,68.4,66H68
				c-0.1,0-0.2,0-0.3,0.1c-0.1,0.1-0.1,0.2-0.1,0.3v0.3c0,0.1,0,0.2,0.1,0.3c0.1,0.1,0.2,0.1,0.3,0.1H68.4z M63.3,65.7v-2.2
				c0-0.2-0.1-0.3-0.3-0.3c-0.2,0-0.3,0.2-0.3,0.3v2.8h1.8v1.2c0,0.2,0.1,0.3,0.3,0.3c0.2,0,0.3-0.1,0.3-0.3v-1.2
				c0.2,0,0.3-0.1,0.3-0.3c0-0.2-0.1-0.3-0.3-0.3V64c0-0.2-0.1-0.3-0.3-0.3c-0.2,0-0.3,0.1-0.3,0.3v1.7H63.3z M60.5,63.8v1
				c0,0.3-0.1,0.4-0.3,0.4H59c-0.2,0-0.3,0.1-0.3,0.3s0.1,0.3,0.3,0.3h1.2c0.2,0,0.3,0.1,0.3,0.4v1h-2.1c-0.2,0-0.3,0.1-0.3,0.3
				c0,0.2,0.1,0.3,0.3,0.3h2.1c0.3,0,0.6-0.3,0.6-0.6v-1.2c0-0.2,0-0.4-0.2-0.6c0.2-0.2,0.2-0.3,0.2-0.6v-1.2c0-0.3-0.3-0.6-0.6-0.6
				h-2.1c-0.2,0-0.3,0.1-0.3,0.3c0,0.2,0.1,0.3,0.3,0.3H60.5z M54.4,65.8h1.7c0.2,0,0.3,0,0.5-0.2c0.2-0.2,0.2-0.3,0.2-0.5v-1.2
				c0-0.2,0-0.4-0.2-0.5c-0.2-0.1-0.3-0.2-0.5-0.2h-2c-0.2,0-0.3,0.1-0.3,0.3c0,0.2,0.1,0.3,0.3,0.3h2.1v1.4h-1.7
				c-0.5,0-0.7,0.2-0.7,0.7v2h2.7c0.2,0,0.3-0.1,0.3-0.3c0-0.2-0.1-0.3-0.3-0.3h-2.1V65.8z M51.2,67.3v-4.1h-1.5
				c-0.2,0-0.3,0.1-0.3,0.3c0,0.2,0.1,0.3,0.3,0.3h0.9v3.5h-0.9c-0.2,0-0.3,0.1-0.3,0.3c0,0.2,0.1,0.3,0.3,0.3h2.4
				c0.2,0,0.3-0.1,0.3-0.3V66c0-0.2-0.1-0.3-0.3-0.3c-0.2,0-0.3,0.1-0.3,0.3v1.2H51.2z M45.7,67.3v-3.5h1.8v3.5H45.7z M45.7,63.2
				c-0.3,0-0.6,0.3-0.6,0.6v3.5c0,0.3,0.3,0.6,0.6,0.6h1.8c0.3,0,0.6-0.3,0.6-0.6v-3.5c0-0.3-0.3-0.6-0.6-0.6H45.7z M41.4,67.3v-3.5
				h1.8v3.5H41.4z M41.4,63.2c-0.3,0-0.6,0.3-0.6,0.6v3.5c0,0.3,0.3,0.6,0.6,0.6h1.8c0.3,0,0.6-0.3,0.6-0.6v-3.5
				c0-0.3-0.3-0.6-0.6-0.6H41.4z M37.1,67.3v-3.5h1.8v3.5H37.1z M37.1,63.2c-0.3,0-0.6,0.3-0.6,0.6v3.5c0,0.3,0.3,0.6,0.6,0.6h1.8
				c0.3,0,0.6-0.3,0.6-0.6v-3.5c0-0.3-0.3-0.6-0.6-0.6H37.1z M32.8,67.3v-3.5h1.8v3.5H32.8z M32.8,63.2c-0.3,0-0.6,0.3-0.6,0.6v3.5
				c0,0.3,0.3,0.6,0.6,0.6h1.8c0.3,0,0.6-0.3,0.6-0.6v-3.5c0-0.3-0.3-0.6-0.6-0.6H32.8z M28.5,67.3v-3.5h1.8v3.5H28.5z M28.5,63.2
				c-0.3,0-0.6,0.3-0.6,0.6v3.5c0,0.3,0.3,0.6,0.6,0.6h1.8c0.3,0,0.6-0.3,0.6-0.6v-3.5c0-0.3-0.3-0.6-0.6-0.6H28.5z M24.1,67.3v-3.5
				h1.8v3.5H24.1z M24.1,63.2c-0.3,0-0.6,0.3-0.6,0.6v3.5c0,0.3,0.3,0.6,0.6,0.6h1.8c0.3,0,0.6-0.3,0.6-0.6v-3.5
				c0-0.3-0.3-0.6-0.6-0.6H24.1z"/>
		</defs>
		<clipPath id="SVGID_40_">
			<use xlink:href="#SVGID_1705_"  overflow="visible"/>
		</clipPath>
		<rect x="18.5" y="58.2" clip-path="url(#SVGID_40_)" fill="#8FC857" width="55.3" height="14.7"/>
	</g>
</g>
<g>
	<defs>
		<rect id="SVGID_1707_" x="0.2" width="78" height="83"/>
	</defs>
	<clipPath id="SVGID_42_">
		<use xlink:href="#SVGID_1707_"  overflow="visible"/>
	</clipPath>

		<line clip-path="url(#SVGID_42_)" fill="none" stroke="#8FC857" stroke-width="3" stroke-linecap="square" stroke-miterlimit="10" x1="2.3" y1="75.1" x2="3.7" y2="70.2"/>

		<line clip-path="url(#SVGID_42_)" fill="none" stroke="#8FC857" stroke-width="3" stroke-linecap="square" stroke-miterlimit="10" x1="17.7" y1="24.6" x2="19.1" y2="19.8"/>

		<line clip-path="url(#SVGID_42_)" fill="none" stroke="#8FC857" stroke-width="3" stroke-linecap="square" stroke-miterlimit="10" x1="13.8" y1="37.2" x2="15.3" y2="32.4"/>

		<line clip-path="url(#SVGID_42_)" fill="none" stroke="#8FC857" stroke-width="3" stroke-linecap="square" stroke-miterlimit="10" x1="10" y1="49.8" x2="11.4" y2="45"/>

		<line clip-path="url(#SVGID_42_)" fill="none" stroke="#8FC857" stroke-width="3" stroke-linecap="square" stroke-miterlimit="10" x1="6.1" y1="62.5" x2="7.6" y2="57.6"/>

		<line clip-path="url(#SVGID_42_)" fill="none" stroke="#8FC857" stroke-width="3" stroke-linecap="square" stroke-miterlimit="10" x1="21.5" y1="12" x2="23" y2="7.2"/>
</g>
</svg>
