<svg xmlns="http://www.w3.org/2000/svg" viewBox="0 0 38 38" enable-background="new 0 0 38 38"><path fill="#8B8B8E" d="M19 0C8.508 0 0 8.5 0 18.999c0 10.5 8.5 19 19 19 c10.493 0 19-8.506 19-19C38 8.5 29.5 0 19 0L19 0z M16.926 15.458h4.133v15.037h-4.133V15.458z M20.893 10.8 c-0.514 0.527-1.146 0.79-1.892 0.79c-0.747 0-1.384-0.263-1.909-0.79c-0.527-0.526-0.79-1.169-0.79-1.928 c0-0.722 0.263-1.347 0.79-1.874c0.525-0.526 1.156-0.789 1.891-0.789c0.746 0 1.4 0.3 1.9 0.8 c0.526 0.5 0.8 1.1 0.8 1.892S21.419 10.3 20.9 10.846L20.893 10.846z"/></svg>