<svg xmlns="http://www.w3.org/2000/svg" viewBox="0 0 35 35"><style>.bill-pay-icon{fill:#5E707D;}</style><path d="M17.6 30.6c-0.3 0-0.5-0.1-0.7-0.2c-2.2-1.2-4.3-2.9-6.1-5.1l-0.1-0.1c-0.1-0.1-0.2-0.2-0.3-0.3 c-2.3-2.9-3.7-7.2-3.8-11.7L6.4 9c0-0.8 0.5-1.4 1.3-1.5C10.8 7 13.9 6 16.8 4.6c0.5-0.2 1.1-0.2 1.6 0c2.9 1.4 6 2.4 9.2 2.9 c0.8 0.1 1.3 0.8 1.3 1.5l-0.2 4.1c-0.1 4.4-1.4 8.5-3.6 11.4c-0.2 0.3-0.5 0.6-0.7 0.8c-1.8 2.1-3.9 3.8-6 5 C18.1 30.5 17.9 30.6 17.6 30.6z M8.6 9.6L8.8 13c0.1 4.1 1.3 7.9 3.4 10.4l0.3 0.4c1.6 1.9 3.3 3.4 5.2 4.4 c1.8-1.1 3.5-2.5 5.1-4.3c0.2-0.2 0.4-0.5 0.6-0.7c1.9-2.5 3.1-6.3 3.2-10.2l0.2-3.5c-3.2-0.6-6.2-1.5-9-2.9 C14.8 8 11.7 9 8.6 9.6z" class="bill-pay-icon"/></svg>