<?xml version="1.0" encoding="UTF-8" standalone="no"?>
<svg width="100%" height="100%" viewBox="0 0 60 43" version="1.1" xmlns="http://www.w3.org/2000/svg" xmlns:xlink="http://www.w3.org/1999/xlink" xmlns:sketch="http://www.bohemiancoding.com/sketch/ns">
    <g id="Page-1" stroke="none" stroke-width="1" fill="none" fill-rule="evenodd" sketch:type="MSPage">
        <g id="Desktop" sketch:type="MSArtboardGroup" transform="translate(-516.000000, -260.000000)" fill="#8B8D8E">
            <path d="M576,296 L576,268 L559,282 L576,296 L576,296 Z M546,293 L536,284 L516,300 L516,300 C516,301.862063 517.125,303 519,303 L574,303 C574.875,303 576,301.862063 576,300 L576,300 L556,284 L546,293 L546,293 Z M516,268 L516,296 L533,282 L516,268 L516,268 Z M519,260 C517.125,260 516,261.124362 516,262 L516,263 L546,287 L576,263 L576,262 C576,261.124362 574.875,260 574,260 L519,260 Z" id="Imported-Layers-4" sketch:type="MSShapeGroup"></path>
        </g>
    </g>
</svg>