<?xml version="1.0" encoding="UTF-8"?>
<svg width="48px" height="40px" viewBox="0 0 48 40" version="1.1" xmlns="http://www.w3.org/2000/svg" xmlns:xlink="http://www.w3.org/1999/xlink">
    <!-- Generator: Sketch 41 (35326) - http://www.bohemiancoding.com/sketch -->
    <title>Twitter_Logo_White_On_Image</title>
    <desc>Created with Sketch.</desc>
    <defs></defs>
    <g id="Page-1" stroke="none" stroke-width="1" fill="none" fill-rule="evenodd">
        <g id="Twitter_Logo_White_On_Image" transform="translate(0.000000, -1.000000)" fill="#FFFFFF">
            <g id="Logo__x2014__FIXED" transform="translate(0.000000, 1.216000)">
                <path d="M15.0912,39.0912 C33.1968,39.0912 43.104,24.0768 43.104,11.0784 C43.104,10.656 43.104,10.2336 43.0848,9.8112 C45.0048,8.4288 46.6752,6.6816 48,4.704 C46.2336,5.4912 44.3328,6.0096 42.336,6.2592 C44.3712,5.0496 45.9264,3.1104 46.6752,0.8064 C44.7744,1.9392 42.6624,2.7456 40.416,3.1872 C38.6112,1.2672 36.0576,0.0768 33.2352,0.0768 C27.8016,0.0768 23.3856,4.4928 23.3856,9.9264 C23.3856,10.6944 23.4816,11.4432 23.6352,12.1728 C15.456,11.7696 8.1984,7.8336 3.3408,1.8816 C2.496,3.3408 2.016,5.0304 2.016,6.8352 C2.016,10.2528 3.7632,13.2672 6.3936,15.0336 C4.7808,14.976 3.264,14.5344 1.9392,13.8048 L1.9392,13.9392 C1.9392,18.7008 5.3376,22.6944 9.8304,23.5968 C9.0048,23.8272 8.1408,23.9424 7.2384,23.9424 C6.6048,23.9424 5.9904,23.8848 5.3952,23.7696 C6.6432,27.6864 10.2912,30.528 14.592,30.6048 C11.2128,33.2544 6.9696,34.8288 2.3616,34.8288 C1.5744,34.8288 0.7872,34.7904 0.0192,34.6944 C4.3584,37.4592 9.5424,39.0912 15.0912,39.0912" id="Shape"></path>
            </g>
        </g>
    </g>
</svg>