<svg xmlns="http://www.w3.org/2000/svg" viewBox="0 0 35 35"><style>.bill-pay-icon{fill:#5E707D;}</style><path d="M22.5 6.5c-0.8-0.8-1.9-1.4-3-1.8c-0.6-0.2-1.3-0.3-2-0.3c-1.9 0-3.6 0.7-5 2.1c-1.3 1.3-2.1 3.1-2.1 5 l0 0.6c0.1 1 0.4 1.9 0.8 2.7c0 0 2.6 4.8 2.6 7.7l0.1 0.9c0.1 0.6 0.4 0.9 0.9 0.9H20c0.4 0 0.7-0.3 0.9-0.9l0.1-0.9 c0-3 2.6-7.7 2.7-7.7c0.4-0.8 0.7-1.8 0.8-2.7l0-0.6C24.5 9.6 23.8 7.8 22.5 6.5z M15.8 22.5c0-2.5-1.5-5.8-2.7-8.2L12.9 14 c-0.3-0.6-0.6-1.3-0.6-2l0-0.6c0-2.7 2.2-5 4.9-5.2c3-0.2 5.5 2.2 5.6 5.2l0 0.6c-0.2 1.6-1.2 3-1.8 4.5c-0.8 1.9-1.6 3.9-1.7 6 H15.8z" class="bill-pay-icon"/><path d="M19.7 26.7h-4.4c-0.6 0-1-0.4-1-1s0.4-1 1-1h4.4c0.6 0 1 0.4 1 1S20.3 26.7 19.7 26.7z" class="bill-pay-icon"/><path d="M19 29.2h-3c-0.6 0-1-0.4-1-1s0.4-1 1-1h3c0.6 0 1 0.4 1 1S19.6 29.2 19 29.2z" class="bill-pay-icon"/></svg>