<svg xmlns="http://www.w3.org/2000/svg" xmlns:xlink="http://www.w3.org/1999/xlink" xmlns:sketch="http://www.bohemiancoding.com/sketch/ns" viewBox="0 0 62 57"><style>.style0{fill:	none;fill-rule:	evenodd;}.style1{fill:	#FFFFFF;}.style2{fill:	white;}.style3{mask:	url(#mask-2);fill:	#505052;}.style4{fill:	#505052;}</style><!-- Generator: Sketch 3.2.2 (9983) - http://www.bohemiancoding.com/sketch --><title>Group</title><desc>Created with Sketch.</desc><defs><path d="M0.0701727986 1.1 L58.4773322 1.1 L58.4773322 58.2 L0.0701727986 58.2"/></defs><g sketch:type="MSPage" class="style0"><g sketch:type="MSLayerGroup" transform="translate(-3.000000, -2.000000)"><rect sketch:type="MSShapeGroup" x="19.2" y="34.6" width="23.4" height="20.9" class="style1"/><g transform="translate(0.448615, 0.603040)"><g><mask sketch:name="Clip 2" class="style2"><use xlink:href="#path-1"/></mask><g/><path d="M9.35637315 8.1 L52.3325341 8.1 L52.3325341 32.8 L9.35637315 32.8 L9.35637315 8.1 Z M35.315372 37.3 L39.4423001 37.3 L39.4423001 41.4 L35.315372 41.4 L35.315372 37.3 Z M35.315372 42.9 L39.4423001 42.9 L39.4423001 47 L35.315372 47 L35.315372 42.9 Z M35.315372 48.5 L39.4423001 48.5 L39.4423001 52.6 L35.315372 52.6 L35.315372 48.5 Z M28.4966179 37.3 L32.6193262 37.3 L32.6193262 41.4 L28.4966179 41.4 L28.4966179 37.3 Z M28.4966179 42.9 L32.6193262 42.9 L32.6193262 47 L28.4966179 47 L28.4966179 42.9 Z M28.4966179 48.5 L32.6193262 48.5 L32.6193262 52.6 L28.4966179 52.6 L28.4966179 48.5 Z M21.6746989 37.3 L25.7995171 37.3 L25.7995171 41.4 L21.6746989 41.4 L21.6746989 37.3 Z M21.6746989 42.9 L25.7995171 42.9 L25.7995171 47 L21.6746989 47 L21.6746989 42.9 Z M21.6746989 48.5 L25.7995171 48.5 L25.7995171 52.6 L21.6746989 52.6 L21.6746989 48.5 Z M9.28914761 2.3 C6.09986409 2.3 3.5 4.9 3.5 8.2 L3.50863993 52.2 C3.50863993 55.5 6.1 58.2 9.3 58.2 L52.701222 58.2 C55.8894062 58.2 58.5 55.5 58.5 52.2 L58.4773322 8.2 C58.4773322 4.9 55.9 2.3 52.7 2.3 L9.28914761 2.3 Z" sketch:type="MSShapeGroup" class="style3"/></g></g><rect sketch:type="MSShapeGroup" x="61.2" y="15.9" width="3.5" height="33.9" rx="2" class="style4"/><path d="M31.2286551 12.4 C26.7072346 12.4 23 16.1 23 20.6 C23.0418286 25.1 26.7 28.7 31.2 28.7 C35.7499119 28.7 39.4 25.1 39.4 20.6 C39.4154816 16.1 35.7 12.4 31.2 12.4 L31.2286551 12.4 Z M31.2286551 14.8 C34.4704747 14.8 37.1 17.4 37.1 20.6 C37.0976273 23.8 34.5 26.4 31.2 26.4 C27.9868356 26.4 25.4 23.8 25.4 20.6 C25.3596829 17.4 28 14.8 31.2 14.8 L31.2286551 14.8 Z M31.2286551 17.5 C29.4973051 17.5 28.1 18.9 28.1 20.6 C28.0921182 22.3 29.5 23.7 31.2 23.7 C32.9600052 23.7 34.4 22.3 34.4 20.6 C34.3651921 18.9 33 17.5 31.2 17.5 L31.2286551 17.5 Z" sketch:type="MSShapeGroup" class="style4"/></g></g></svg>