<svg xmlns="http://www.w3.org/2000/svg" width="48" height="48" viewBox="0 0 48 48"><path d="M45.363 32.634L33 20.271V6a3 3 0 1 0 0-6H15a3.001 3.001 0 0 0 0 6v14.271L2.634 32.634a9.004 9.004 0 0 0 0 12.729A8.975 8.975 0 0 0 9 48h30a8.968 8.968 0 0 0 6.363-2.637 8.999 8.999 0 0 0 0-12.729zm-4.242 8.487A2.989 2.989 0 0 1 39 42H9a2.995 2.995 0 0 1-2.124-.879 3.006 3.006 0 0 1 0-4.245L21 22.758V6h6v16.758l14.121 14.118c.765.765.879 1.659.879 2.121a2.99 2.99 0 0 1-.879 2.124zM33 33l6 6H9l6-6z"/></svg>