<svg xmlns="http://www.w3.org/2000/svg" viewBox="0 0 35 35"><style>.bill-pay-icon{fill:#5E707D;}</style><path d="M30 25.6h-1.6V15.4h1c0.6 0 1.2-0.3 1.4-0.8c0.2-0.5 0-1-0.5-1.3L18.4 6.5c-0.5-0.3-1.3-0.3-1.8 0L4.7 13.4 c-0.5 0.3-0.7 0.8-0.5 1.3c0.2 0.5 0.8 0.8 1.4 0.8h1v10.2H5c-0.5 0-0.9 0.4-0.9 0.9v1.3c0 0.5 0.4 0.9 0.9 0.9h25 c0.5 0 0.9-0.4 0.9-0.9v-1.3C30.9 26 30.5 25.6 30 25.6z M18.5 15.4h2.9v10.2h-2.9V15.4z M16.5 15.4v10.2h-2.9V15.4H16.5 M23.4 15.4h2.9v10.2h-2.9V15.4z M8.6 15.4h2.9v10.2H8.6V15.4z" class="bill-pay-icon"/></svg>