<svg width="48" height="48" viewBox="0 0 48 48" xmlns="http://www.w3.org/2000/svg"><title>Group 5</title><path d="M40.903 40.901h-7.119v-11.14c0-2.656-.045-6.073-3.699-6.073-3.705 0-4.27 2.895-4.27 5.884v11.33h-7.111V17.994h6.824v3.132h.099c.949-1.802 3.272-3.7 6.734-3.7 7.21 0 8.542 4.742 8.542 10.912V40.9zM10.677 14.865a4.127 4.127 0 0 1-4.13-4.129 4.128 4.128 0 1 1 4.13 4.13zM7.112 40.901h7.127V17.995H7.112V40.9zM44.448 0H3.54C1.587 0 0 1.55 0 3.461v41.075C0 46.448 1.587 48 3.54 48h40.908c1.957 0 3.55-1.552 3.55-3.464V3.461C47.999 1.55 46.406 0 44.449 0z" fill="#FFF" fill-rule="evenodd"/></svg>