<svg width="48" height="40" viewBox="0 0 48 40" xmlns="http://www.w3.org/2000/svg"><title>Twitter_Logo_White_On_Image</title><path d="M15.091 39.307c18.106 0 28.013-15.014 28.013-28.013 0-.422 0-.844-.02-1.267A20.058 20.058 0 0 0 48 4.92a19.954 19.954 0 0 1-5.664 1.555 9.906 9.906 0 0 0 4.34-5.453 19.584 19.584 0 0 1-6.26 2.381 9.827 9.827 0 0 0-7.18-3.11c-5.434 0-9.85 4.416-9.85 9.85 0 .767.096 1.516.25 2.246-8.18-.403-15.438-4.34-20.295-10.291A9.847 9.847 0 0 0 2.016 7.05a9.872 9.872 0 0 0 4.378 8.199 9.958 9.958 0 0 1-4.455-1.23v.135c0 4.762 3.399 8.755 7.891 9.658-.825.23-1.69.345-2.592.345a9.68 9.68 0 0 1-1.843-.172 9.845 9.845 0 0 0 9.197 6.835 19.747 19.747 0 0 1-12.23 4.224c-.788 0-1.575-.039-2.343-.135a28.006 28.006 0 0 0 15.072 4.397" fill="#FFF" fill-rule="evenodd"/></svg>