<?xml version="1.0" encoding="utf-8"?>
<svg width="35px" height="35px" viewBox="0 0 35 35" version="1.1" xmlns="http://www.w3.org/2000/svg" xmlns:xlink="http://www.w3.org/1999/xlink" xmlns:sketch="http://www.bohemiancoding.com/sketch/ns">
<!-- Generator: Adobe Illustrator 18.1.0, SVG Export Plug-In . SVG Version: 6.00 Build 0)  -->
<!DOCTYPE svg PUBLIC "-//W3C//DTD SVG 1.1//EN" "http://www.w3.org/Graphics/SVG/1.1/DTD/svg11.dtd">
    <title>Imported Layers</title>
    <desc>Created with Sketch.</desc>
    <defs>
        <path id="path-1" d="M0,35 L35,35 L35,0 L0,0 L0,35 Z"></path>
    </defs>
<svg version="1.1" id="Layer_1" xmlns="http://www.w3.org/2000/svg" xmlns:xlink="http://www.w3.org/1999/xlink" x="0px" y="0px"
	 viewBox="0 0 35 35" enable-background="new 0 0 35 35" xml:space="preserve">
            <g id="Group-3">
                <mask id="mask-2" sketch:name="Clip 2" fill="white">
                    <use xlink:href="#path-1"></use>
                </mask>
                <g id="Clip-2"></g>
<path fill="#5C6B80" d="M5.5,32.3c-0.4-0.9-1.8-2.3-2.8-2.8L4,25.6c2.3,0.4,4.9,3,5.3,5.4L5.5,32.3z M29.9,11.2l0.3,0.3
	c-0.5-1.5-1.3-2.9-2.5-4.1s-2.6-2.1-4.1-2.6l0,0l-0.1,0.1l-20,20L3.4,25L0,35l10-3.4l0,0l0.1-0.1l20.1-20L29.9,11.2z"/>
            </g>
<path fill="#5C6B80" d="M34.9,6.7c0.6-2.7-4.1-7.3-6.6-6.6l0,0l-0.1,0.1L25,3.5c3,1.2,5.6,3.8,6.7,6.6L34.9,6.7l-0.3-0.3L34.9,6.7z"
        </g>
	/>
</svg>
