<?xml version="1.0" encoding="UTF-8"?>
<svg width="48px" height="48px" viewBox="0 0 48 48" version="1.1" xmlns="http://www.w3.org/2000/svg" xmlns:xlink="http://www.w3.org/1999/xlink">
    <!-- Generator: Sketch 41 (35326) - http://www.bohemiancoding.com/sketch -->
    <title>arrow-right</title>
    <desc>Created with Sketch.</desc>
    <defs></defs>
    <g id="Page-1" stroke="none" stroke-width="1" fill="none" fill-rule="evenodd">
        <g id="arrow-right" fill="#000000">
            <path d="M24,0 C10.746,0 0,10.746 0,24 C0,37.254 10.746,48 24,48 C37.254,48 48,37.254 48,24 C48,10.746 37.254,0 24,0 Z M35.124,21.879 C35.709,22.464 36.003,23.232 36.003,24 C36.003,24.768 35.709,25.536 35.124,26.121 L29.124,32.121 C28.266,32.979 26.973,33.234 25.851,32.772 C24.732,32.31 24,31.212 24,30 L24,27 L15,27 C13.341,27 12,25.659 12,24 C12,22.341 13.341,21 15,21 L24,21 L24,18 C24,16.788 24.732,15.69 25.851,15.228 C26.976,14.766 28.266,15.024 29.124,15.879 L35.124,21.879 Z" id="Shape"></path>
        </g>
    </g>
</svg>