<?xml version="1.0" encoding="UTF-8"?>
<svg width="48px" height="36px" viewBox="0 0 48 36" version="1.1" xmlns="http://www.w3.org/2000/svg" xmlns:xlink="http://www.w3.org/1999/xlink">
    <!-- Generator: Sketch 41 (35326) - http://www.bohemiancoding.com/sketch -->
    <title>envelope</title>
    <desc>Created with Sketch.</desc>
    <defs></defs>
    <g id="Page-1" stroke="none" stroke-width="1" fill="none" fill-rule="evenodd">
        <g id="envelope" fill="#FFFFFF">
            <g id="Layer_1">
                <path d="M39,36 L9,36 C4.029,36 0,31.971 0,27 L0,9 C0,4.029 4.029,0 9,0 L39,0 C43.968,0 48,4.029 48,9 L48,27 C48,31.971 43.968,36 39,36 Z M9,6 C8.265,6 7.62,6.294 7.098,6.732 L24,18 L40.905,6.732 C40.383,6.294 39.732,6 39,6 L9,6 Z M42,12 L24,24 L6,12 L6,24 L15,21 L6.879,29.121 C7.422,29.664 8.172,30 9,30 L39,30 C39.828,30 40.578,29.664 41.121,29.121 L33,21 L42,24 L42,12 Z" id="Shape"></path>
            </g>
        </g>
    </g>
</svg>