<?xml version="1.0" encoding="UTF-8" standalone="no"?>
<svg viewBox="0 0 38 38" version="1.1" xmlns="http://www.w3.org/2000/svg" xmlns:xlink="http://www.w3.org/1999/xlink" xmlns:sketch="http://www.bohemiancoding.com/sketch/ns">
    <defs></defs>
    <g id="Page-1" stroke="none" stroke-width="1" fill="none" fill-rule="evenodd" sketch:type="MSPage">
        <path d="M19,0 C8.508,0 0,8.506 0,18.999 C0,29.493 8.508,37.999 19,37.999 C29.493,37.999 38,29.493 38,18.999 C38,8.506 29.493,0 19,0 L19,0 Z M16.926,15.458 L21.059,15.458 L21.059,30.495 L16.926,30.495 L16.926,15.458 Z M20.893,10.846 C20.379,11.373 19.747,11.636 19.001,11.636 C18.254,11.636 17.617,11.373 17.092,10.846 C16.565,10.32 16.302,9.677 16.302,8.918 C16.302,8.196 16.565,7.571 17.092,7.044 C17.617,6.518 18.248,6.255 18.983,6.255 C19.729,6.255 20.366,6.518 20.893,7.044 C21.419,7.559 21.683,8.189 21.683,8.936 C21.683,9.683 21.419,10.32 20.893,10.846 L20.893,10.846 Z" id="Imported-Layers" fill="#FFFFFF" sketch:type="MSShapeGroup"></path>
    </g>
</svg>