<?xml version="1.0" encoding="utf-8"?>
<!-- Generator: Adobe Illustrator 16.0.0, SVG Export Plug-In . SVG Version: 6.00 Build 0)  -->
<!DOCTYPE svg PUBLIC "-//W3C//DTD SVG 1.1//EN" "http://www.w3.org/Graphics/SVG/1.1/DTD/svg11.dtd">
<svg version="1.1" id="Layer_1" xmlns:sketch="http://www.bohemiancoding.com/sketch/ns"
	 xmlns="http://www.w3.org/2000/svg" xmlns:xlink="http://www.w3.org/1999/xlink" x="0px" y="0px"
	 viewBox="0 0 69 53" enable-background="new 0 0 69 53" xml:space="preserve">
<title>Rectangle 50 + Rectangle 50 + ****</title>
<desc>Created with Sketch.</desc>
<g id="Page-1" sketch:type="MSPage">
	<g id="Rectangle-50-_x2B_-Rectangle-50-_x2B_-_x2A__x2A__x2A__x2A_" sketch:type="MSLayerGroup">
		<path id="Rectangle-50" sketch:type="MSShapeGroup" fill="none" stroke="#505052" stroke-width="4" d="M15.001,2.307h46.114
			c3.117,0,5.646,2.528,5.646,5.646v30.115c0,3.119-2.527,5.646-5.646,5.646H15.001c-3.119,0-5.647-2.526-5.647-5.646V7.954
			C9.354,4.835,11.882,2.307,15.001,2.307z"/>
		<path id="Rectangle-50_1_" sketch:type="MSShapeGroup" fill="#FFFFFF" stroke="#505052" stroke-width="4" d="M7.646,9.41H53.76
			c3.117,0,5.646,2.527,5.646,5.646V45.17c0,3.118-2.527,5.646-5.646,5.646H7.646C4.527,50.816,2,48.289,2,45.17V15.056
			C2.001,11.937,4.527,9.41,7.646,9.41z"/>
		<text transform="matrix(1 0 0 1 42.1953 41.833)" fill="#474849" font-family="'Arial-BoldMT'" font-size="20.7042"> </text>
		<g>
			<path fill="#474849" d="M13.34,33.646l-1.527-1.184c0.485-0.546,0.991-1.068,1.517-1.566c0.209-0.203,0.341-0.33,0.395-0.385
				c-0.169-0.027-0.65-0.138-1.445-0.334c-0.573-0.142-0.951-0.244-1.133-0.312l0.597-1.779c0.883,0.357,1.671,0.752,2.365,1.184
				c-0.161-1.099-0.242-1.994-0.242-2.688h1.799c0,0.492-0.091,1.396-0.272,2.709c0.135-0.054,0.425-0.185,0.869-0.394
				c0.606-0.276,1.166-0.514,1.679-0.709l0.535,1.83c-0.748,0.168-1.614,0.334-2.598,0.496l1.213,1.364
				c0.243,0.276,0.435,0.502,0.576,0.677l-1.547,1.021l-1.364-2.256C14.344,32.049,13.872,32.823,13.34,33.646z"/>
			<path fill="#474849" d="M23.934,33.646l-1.526-1.184c0.485-0.546,0.99-1.068,1.517-1.566c0.208-0.203,0.34-0.33,0.394-0.385
				c-0.168-0.027-0.65-0.138-1.445-0.334c-0.573-0.142-0.95-0.244-1.132-0.312l0.596-1.779c0.883,0.357,1.672,0.752,2.366,1.184
				c-0.162-1.099-0.243-1.994-0.243-2.688h1.8c0,0.492-0.091,1.396-0.273,2.709c0.135-0.054,0.425-0.185,0.87-0.394
				c0.606-0.276,1.166-0.514,1.678-0.709l0.536,1.83c-0.748,0.168-1.614,0.334-2.599,0.496l1.214,1.364
				c0.242,0.276,0.435,0.502,0.576,0.677l-1.547,1.021l-1.365-2.256C24.938,32.049,24.466,32.823,23.934,33.646z"/>
			<path fill="#474849" d="M34.53,33.646l-1.527-1.184c0.485-0.546,0.991-1.068,1.517-1.566c0.209-0.203,0.34-0.33,0.395-0.385
				c-0.17-0.027-0.65-0.138-1.445-0.334c-0.573-0.142-0.951-0.244-1.133-0.312l0.597-1.779c0.883,0.357,1.671,0.752,2.364,1.184
				c-0.158-1.099-0.24-1.994-0.24-2.688h1.799c0,0.492-0.09,1.396-0.271,2.709c0.135-0.054,0.424-0.185,0.869-0.394
				c0.605-0.276,1.166-0.514,1.678-0.709l0.535,1.83c-0.748,0.168-1.613,0.334-2.598,0.496l1.213,1.364
				c0.242,0.276,0.436,0.502,0.576,0.677l-1.547,1.021l-1.363-2.256C35.533,32.049,35.062,32.823,34.53,33.646z"/>
			<g enable-background="new    ">
				<path fill="#474849" d="M45.125,33.646L43.6,32.463c0.484-0.546,0.99-1.068,1.516-1.566c0.209-0.203,0.34-0.33,0.396-0.385
					c-0.17-0.027-0.65-0.138-1.445-0.334c-0.574-0.142-0.951-0.244-1.133-0.312l0.596-1.779c0.883,0.357,1.672,0.752,2.365,1.184
					c-0.16-1.099-0.242-1.994-0.242-2.688h1.799c0,0.492-0.09,1.396-0.271,2.709c0.135-0.054,0.424-0.185,0.869-0.394
					c0.605-0.276,1.166-0.514,1.678-0.709l0.537,1.83c-0.748,0.168-1.615,0.334-2.6,0.496l1.213,1.364
					c0.244,0.276,0.436,0.502,0.576,0.677l-1.547,1.021l-1.363-2.256C46.127,32.049,45.658,32.823,45.125,33.646z"/>
			</g>
		</g>
	</g>
</g>
</svg>
