<?xml version="1.0" encoding="UTF-8" standalone="no"?>
<svg viewBox="0 0 68 63" version="1.1" xmlns="http://www.w3.org/2000/svg" xmlns:xlink="http://www.w3.org/1999/xlink" xmlns:sketch="http://www.bohemiancoding.com/sketch/ns">
    <!-- Generator: Sketch 3.2.2 (9983) - http://www.bohemiancoding.com/sketch -->
    <title>alert</title>
    <desc>Created with Sketch.</desc>
    <defs>
        <rect id="path-1" x="0.100006104" y="0.5" width="35.8999939" height="34.4142946"></rect>
    </defs>
    <g id="SVG" stroke="none" stroke-width="1" fill="none" fill-rule="evenodd" sketch:type="MSPage">
        <g id="alert" sketch:type="MSArtboardGroup">
            <g id="Manage-Illustration-3" sketch:type="MSLayerGroup" transform="translate(-0.800000, 1.800000)">
                <g id="Card-Success">
                    <g id="Rectangle-16" transform="translate(0.000000, 27.000000)">
                        <mask id="mask-2" sketch:name="Mask" fill="white">
                            <use xlink:href="#path-1"></use>
                        </mask>
                        <g id="Mask">
                            <use sketch:type="MSShapeGroup" xlink:href="#path-1"></use>
                            <use xlink:href="#path-1"></use>
                        </g>
                        <path d="M30.3146013,25.3504644 L71.0723881,25.3504644 C73.8359816,25.3504644 76.0805826,23.1085056 76.0805826,20.3429092 L76.0805826,-16.6419804 C76.0805826,-19.4142467 73.8383376,-21.6495356 71.0723881,-21.6495356 L6.08877711,-21.6495356 C3.32518364,-21.6495356 1.08058262,-19.4075767 1.08058262,-16.6419804 L1.08058262,20.3429092 C1.08058262,23.1151756 3.32282767,25.3504644 6.08877711,25.3504644 L9.04757403,25.3504644 L16.1471043,32.4499947 C18.0977025,34.4005929 21.2619105,34.4031552 23.2119544,32.4531114 L30.3146013,25.3504644 Z" fill="#E5E5E5" sketch:type="MSShapeGroup" mask="url(#mask-2)"></path>
                    </g>
                    <path d="M35.0581413,47.3504644 L61.0717275,47.3504644 C64.3984592,47.3504644 67.0805826,44.6640289 67.0805826,41.3501427 L67.0805826,6.35078614 C67.0805826,3.04619809 64.3903265,0.350464432 61.0717275,0.350464432 L11.5894378,0.350464432 C8.26270604,0.350464432 5.58058262,3.03689997 5.58058262,6.35078614 L5.58058262,41.3501427 C5.58058262,44.6547308 8.27083871,47.3504644 11.5894378,47.3504644 L14.1799431,47.3504644 L20.3761369,53.5466583 C22.7200085,55.8905299 26.5153791,55.8932267 28.8546291,53.5539766 L35.0581413,47.3504644 Z" id="Rectangle-18" stroke="#009DDC" stroke-width="3" stroke-linejoin="round" fill="#B5EAFF" sketch:type="MSShapeGroup"></path>
                    <g id="Oval-88-+-1" transform="translate(21.000000, 9.500000)" font-weight="420" font-family="BentonSans" fill="#009DDC" font-size="24" sketch:alignment="middle" sketch:type="MSTextLayer">
                        <text id="1">
                            <tspan x="9.96445313" y="23.1777778">1</tspan>
                        </text>
                    </g>
                </g>
            </g>
        </g>
    </g>
</svg>