<?xml version="1.0" encoding="UTF-8" standalone="no"?>
<svg viewBox="0 0 130 83" version="1.1" xmlns="http://www.w3.org/2000/svg" xmlns:xlink="http://www.w3.org/1999/xlink" xmlns:sketch="http://www.bohemiancoding.com/sketch/ns">
    <!-- Generator: Sketch 3.2.2 (9983) - http://www.bohemiancoding.com/sketch -->
    <title>card-pre</title>
    <desc>Created with Sketch.</desc>
    <defs></defs>
    <g id="SVG" stroke="none" stroke-width="1" fill="none" fill-rule="evenodd" sketch:type="MSPage">
        <g id="card-pre" sketch:type="MSArtboardGroup">
            <g id="BB-Card-2" sketch:type="MSLayerGroup" transform="translate(2.000000, 2.000000)">
                <rect id="Rectangle-15" stroke="#064B8D" stroke-width="3" fill="#FFFFFF" sketch:type="MSShapeGroup" x="0" y="0" width="126" height="79" rx="4"></rect>
                <g id="BB-Logo" transform="translate(29.000000, 14.000000)" sketch:type="MSShapeGroup">
                    <path d="M27.0652319,22.1375229 C27.1283043,24.0000275 28.5804493,24.8040826 30.2225507,24.8040826 C31.4231449,24.8040826 32.2650145,24.6133486 33.0642609,24.3386422 L33.4431884,26.1164312 C32.5594348,26.497156 31.3383913,26.7721101 29.865058,26.7721101 C26.538971,26.7721101 24.5815072,24.719367 24.5815072,21.5663119 C24.5815072,18.7087706 26.3073768,16.021156 29.5913333,16.021156 C32.9174203,16.021156 34.0118261,18.7724312 34.0118261,21.0369633 C34.0118261,21.5234587 33.9696957,21.9046789 33.9275652,22.1375229 L27.0652319,22.1375229 L27.0652319,22.1375229 Z M31.5702319,20.3176239 C31.5909275,19.3651927 31.1703623,17.7984495 29.4437536,17.7984495 C27.844029,17.7984495 27.1706812,19.2589266 27.0652319,20.3176239 L31.5702319,20.3176239 L31.5702319,20.3176239 Z" id="Fill-1" fill="#004B8E"></path>
                    <path d="M13.358058,26.5608165 C12.1596812,26.5608165 10.800913,26.8097615 10.800913,24.2048807 L10.800913,12.1926055 L13.358058,12.1926055 L13.358058,26.5608165" id="Fill-2" fill="#004B8E"></path>
                    <path d="M62.4124203,12.1926055 L62.4124203,13.0917798 L62.4062609,13.0917798 L62.4062609,17.3543119 L62.3858116,17.3543119 C61.9226232,16.592367 60.8912899,16.021156 59.4802899,16.021156 C57.018,16.021156 54.8708261,18.0741468 54.8915217,21.5234587 C54.8915217,24.6983119 56.8282899,26.7934128 59.2910725,26.7934128 C60.6695507,26.7934128 61.8447681,26.1634954 62.4905217,25.1476514 C62.7945507,26.742633 63.9404493,26.5608165 64.9688261,26.5608165 L64.9688261,12.1926055 L62.4124203,12.1926055 L62.4124203,12.1926055 Z M62.4062609,22.0951651 C62.4062609,22.370367 62.3853188,22.6245138 62.3222464,22.8571101 C62.0697101,23.9787248 61.1433333,24.6983119 60.091058,24.6983119 C58.4489565,24.6983119 57.5230725,23.3227982 57.5230725,21.4184312 C57.5230725,19.5130734 58.4489565,18.0315413 60.112,18.0315413 C61.290913,18.0315413 62.1118406,18.8568991 62.3434348,19.8519358 C62.3853188,20.0634771 62.4062609,20.3384312 62.4062609,20.5499725 L62.4062609,22.0951651 L62.4062609,22.0951651 Z" id="Fill-3" fill="#004B8E"></path>
                    <path d="M34.5816957,12.1926055 L34.5816957,26.5608165 C35.6100725,26.5608165 36.7552319,26.742633 37.0595072,25.1476514 C37.7055072,26.1634954 38.880971,26.7934128 40.2592029,26.7934128 C42.7219855,26.7934128 44.6587536,24.6983119 44.6587536,21.5234587 C44.6794493,18.0741468 42.5322754,16.021156 40.0699855,16.021156 C38.6594783,16.021156 37.6276522,16.592367 37.1644638,17.3543119 L37.1437681,17.3543119 L37.1437681,13.0917798 L37.1381014,13.0917798 L37.1381014,12.1926055 L34.5816957,12.1926055 L34.5816957,12.1926055 Z M37.1437681,20.5499725 C37.1437681,20.3384312 37.1644638,20.0634771 37.2068406,19.8519358 C37.4384348,18.8568991 38.2596087,18.0315413 39.438029,18.0315413 C41.1013188,18.0315413 42.0274493,19.5130734 42.0274493,21.4184312 C42.0274493,23.3227982 41.1013188,24.6983119 39.4592174,24.6983119 C38.406942,24.6983119 37.4805652,23.9787248 37.2275362,22.8571101 C37.1644638,22.6245138 37.1437681,22.370367 37.1437681,22.0951651 L37.1437681,20.5499725 L37.1437681,20.5499725 Z" id="Fill-4" fill="#004B8E"></path>
                    <path d="M47.9796667,26.5608165 C46.7815362,26.5608165 45.4232609,26.8097615 45.4232609,24.2048807 L45.4232609,16.254 L47.9796667,16.254 L47.9796667,26.5608165" id="Fill-5" fill="#004B8E"></path>
                    <path d="M49.2926087,19.5764862 C49.2926087,18.1799174 49.2714203,17.1638257 49.2083478,16.254 L51.4397826,16.254 L51.5449855,18.2012202 L51.608058,18.2012202 C52.1133768,16.7617982 53.3134783,16.021156 54.4288261,16.021156 C54.6813623,16.021156 54.828942,16.0427064 55.0395942,16.0848165 L55.0395942,18.5185321 C54.8077536,18.4761743 54.5761594,18.455367 54.2603043,18.455367 C53.0395072,18.455367 52.1759565,19.2378716 51.9448551,20.4231468 C51.9032174,20.6557431 51.8817826,20.9311927 51.8817826,21.2058991 L51.8817826,22.7223578 L51.8497536,24.4880092 L51.8497536,26.5608165 C50.6523623,26.5608165 49.2935942,26.8097615 49.2935942,24.2048807 L49.2926087,19.5764862" id="Fill-6" fill="#004B8E"></path>
                    <path d="M23.9081594,16.254 L21.3192319,16.254 L21.3192319,22.4758899 C21.3192319,22.7723945 21.2771014,23.0686514 21.1721449,23.2801927 C20.9193623,23.9579174 20.2457681,24.6770092 19.1934928,24.6770092 C17.8251159,24.6770092 17.2771739,23.5766972 17.2771739,21.8625688 L17.2771739,16.254 L14.6884928,16.254 L14.6884928,22.3067064 C14.6884928,25.6717982 16.3934203,26.7934128 18.2459275,26.7934128 C19.9454348,26.7934128 20.9343913,25.9036514 21.4273913,25.2001651 C21.7474348,26.7391651 22.8790435,26.5608165 23.8958406,26.5608165 L23.9081594,16.254" id="Fill-7" fill="#004B8E"></path>
                    <path d="M46.6615507,14.845789 C45.7984928,14.845789 45.2301014,14.2109174 45.2301014,13.4494679 C45.2301014,12.644422 45.8194348,12.0308532 46.6824928,12.0308532 C47.5667391,12.0308532 48.1141884,12.644422 48.1348841,13.4494679 C48.1348841,14.2109174 47.5667391,14.845789 46.6824928,14.845789 L46.6615507,14.845789" id="Fill-8" fill="#004B8E"></path>
                    <path d="M0.0226666667,12.5086789 C0.843594203,12.3385046 2.33836232,12.1908716 3.81169565,12.1908716 C5.70633333,12.1908716 6.90618841,12.4445229 7.85375362,13.1006972 C8.73775362,13.6297982 9.32684058,14.5609266 9.32684058,15.7885596 C9.32684058,17.1009083 8.50591304,18.2851927 6.96926087,18.8568991 L6.96926087,18.9203119 C8.46402899,19.3017798 9.83215942,20.4868073 9.83215942,22.4337798 C9.83215942,23.7032752 9.2852029,24.6983119 8.48497101,25.3752936 C7.47482609,26.2640642 5.81128986,26.708945 3.20117391,26.708945 C1.76947826,26.708945 0.69626087,26.6031743 0.0226666667,26.518211 L0.0226666667,12.5086789 L0.0226666667,12.5086789 Z M2.59065217,18.1378073 L3.91689855,18.1378073 C5.72752174,18.1378073 6.71697101,17.2911468 6.71697101,16.0848165 C6.71697101,14.7303578 5.70633333,14.1162936 4.06423188,14.1162936 C3.30662319,14.1162936 2.86462319,14.1588991 2.59065217,14.2220642 L2.59065217,18.1378073 L2.59065217,18.1378073 Z M2.59065217,24.6770092 C2.92744928,24.7409174 3.36994203,24.7409174 3.95878261,24.7409174 C5.62182609,24.7409174 7.11684058,24.1266055 7.11684058,22.3495596 C7.11684058,20.6983486 5.6642029,20.0211193 3.87476812,20.0211193 L2.59065217,20.0211193 L2.59065217,24.6770092 L2.59065217,24.6770092 Z" id="Fill-9" fill="#004B8E"></path>
                    <path d="M58.3013768,6.88450459 C58.2853623,6.8889633 58.2710725,6.89466055 58.2557971,6.89911927 C57.5262754,8.46189908 56.0645217,9.40590826 54.430058,10.2377064 C55.4778986,11.1789908 57.0672754,11.4532018 58.7268696,10.7546697 C59.1250145,10.5872202 59.0572609,10.5659174 59.5618406,10.3558624 C59.5618406,10.3558624 61.0548841,9.44900917 62.1584058,9.68953211 C61.7888406,7.7873945 60.1694058,6.34722936 58.3013768,6.88450459" id="Fill-10" fill="#064B8D"></path>
                    <path d="M54.806029,3.294 C54.9092609,3.51074312 55.0122464,3.70568807 55.097,3.90608257 C55.3616087,3.14116514 56.1303043,2.66185321 56.9512319,2.8042844 C57.4466957,2.89023853 57.8578986,3.18500917 58.1175797,3.58530275 C58.1873043,3.66952294 58.2348551,3.76266055 58.2641739,3.86298165 C58.3878551,4.15378899 58.4381159,4.48100917 58.3905652,4.81516514 C58.362971,5.00515596 58.3038406,5.18325688 58.2232754,5.34451376 C58.4617681,5.53822018 58.6746377,5.75248624 58.8584348,5.99300917 C58.4496957,6.06311009 58.1983913,6.15922018 57.881058,6.25855046 C57.2104203,8.1346789 55.3707246,9.10965138 53.5482754,9.99668807 C52.766029,10.3771651 51.8541884,11.0744587 51.6686667,11.9803211 C51.2821014,10.6246239 51.5600145,8.32640367 52.2508551,7.11313761 C52.0882464,6.81861468 51.8948406,6.52111927 51.7667246,6.1983578 C51.2899855,4.91598165 51.1113623,3.43197248 51.0495217,2.76093578 C50.977087,1.98041284 50.6609855,1.05498165 49.8218261,0.183550459 C52.1458986,0.671036697 53.0207826,1.29748624 53.0207826,1.29748624 C53.0207826,1.29748624 54.0762609,1.86002752 54.806029,3.294" id="Fill-11" fill="#064B8D"></path>
                    <path d="M65.7695507,13.1395872 C65.7695507,12.5745688 66.2095797,12.1279541 66.7710725,12.1279541 C67.3278841,12.1279541 67.763971,12.5745688 67.763971,13.1348807 C67.763971,13.703367 67.3278841,14.1507248 66.7668841,14.1507248 C66.2095797,14.1507248 65.7695507,13.703367 65.7695507,13.1395872 L65.7695507,13.1395872 Z M67.6218116,13.1395872 C67.6218116,12.6573028 67.2465797,12.2669174 66.7668841,12.2669174 C66.2918696,12.2669174 65.9161449,12.6535872 65.9161449,13.1348807 C65.9161449,13.6211284 66.2918696,14.0077982 66.7710725,14.0077982 C67.2465797,14.0077982 67.6218116,13.6253394 67.6218116,13.1395872 L67.6218116,13.1395872 Z M66.3958406,12.5621835 L66.7885652,12.5621835 C67.0428261,12.5621835 67.1854783,12.6751376 67.1854783,12.883211 C67.1854783,13.0613119 67.0953043,13.1522202 66.9524058,13.1913578 L67.2157826,13.6776055 L67.0305072,13.6776055 L66.779942,13.213156 L66.5685507,13.213156 L66.5685507,13.6776055 L66.3958406,13.6776055 L66.3958406,12.5621835 L66.3958406,12.5621835 Z M66.779942,13.0699817 C66.9272754,13.0699817 67.0176957,13.0263853 67.0176957,12.8918807 C67.0176957,12.7660459 66.9272754,12.7179908 66.7752609,12.7179908 L66.5685507,12.7179908 L66.5685507,13.0699817 L66.779942,13.0699817 L66.779942,13.0699817 Z" id="Fill-12" fill="#004B8E"></path>
                </g>
            </g>
        </g>
    </g>
</svg>