<?xml version="1.0" encoding="utf-8"?>
<!-- Generator: Adobe Illustrator 18.0.0, SVG Export Plug-In . SVG Version: 6.00 Build 0)  -->
<!DOCTYPE svg PUBLIC "-//W3C//DTD SVG 1.1//EN" "http://www.w3.org/Graphics/SVG/1.1/DTD/svg11.dtd">
<svg version="1.1" id="Layer_1" xmlns="http://www.w3.org/2000/svg" xmlns:xlink="http://www.w3.org/1999/xlink" x="0px" y="0px"
	 width="261px" height="201px" viewBox="0 0 261 201" enable-background="new 0 0 261 201" xml:space="preserve">
<g>
	<defs>
		<rect id="SVGID_83_" y="-0.5" width="261" height="200"/>
	</defs>
	<clipPath id="SVGID_2_">
		<use xlink:href="#SVGID_83_"  overflow="visible"/>
	</clipPath>
	<g clip-path="url(#SVGID_2_)">
		<text transform="matrix(1 0 0 1 47.2713 116.1403)" fill="#0378BF" font-family="'OCRAStd'" font-size="9.3592">XXXX XXXXXX XXXXX</text>
	</g>
</g>
<g>
	<defs>
		<rect id="SVGID_85_" y="-0.5" width="261" height="200"/>
	</defs>
	<clipPath id="SVGID_4_">
		<use xlink:href="#SVGID_85_"  overflow="visible"/>
	</clipPath>
	<g clip-path="url(#SVGID_4_)">
		<defs>
			<path id="SVGID_87_" d="M14.3,37.6c0-2.4,2-4.4,4.4-4.4h215.9c2.4,0,4.4,2,4.4,4.4v129.2c0,2.4-2,4.4-4.4,4.4H18.7
				c-2.4,0-4.4-2-4.4-4.4V37.6z"/>
		</defs>
		<clipPath id="SVGID_6_">
			<use xlink:href="#SVGID_87_"  overflow="visible"/>
		</clipPath>
		<rect x="9.3" y="28.2" clip-path="url(#SVGID_6_)" fill="#FFFFFF" width="234.7" height="147.9"/>
	</g>
</g>
<g>
	<defs>
		<rect id="SVGID_89_" y="-0.5" width="261" height="200"/>
	</defs>
	<clipPath id="SVGID_8_">
		<use xlink:href="#SVGID_89_"  overflow="visible"/>
	</clipPath>
	<path clip-path="url(#SVGID_8_)" fill="none" stroke="#0E4C8C" stroke-width="6" stroke-miterlimit="10" d="M14.3,37.6
		c0-2.4,2-4.4,4.4-4.4h215.9c2.4,0,4.4,2,4.4,4.4v129.2c0,2.4-2,4.4-4.4,4.4H18.7c-2.4,0-4.4-2-4.4-4.4V37.6z"/>
</g>
<g>
	<defs>
		<rect id="SVGID_91_" y="-0.5" width="261" height="200"/>
	</defs>
	<clipPath id="SVGID_10_">
		<use xlink:href="#SVGID_91_"  overflow="visible"/>
	</clipPath>
	<g clip-path="url(#SVGID_10_)">
		<defs>
			<rect id="SVGID_93_" x="43.7" y="55.3" width="141.6" height="112.7"/>
		</defs>
		<clipPath id="SVGID_12_">
			<use xlink:href="#SVGID_93_"  overflow="visible"/>
		</clipPath>
		<g clip-path="url(#SVGID_12_)" enable-background="new    ">
			<g>
				<defs>
					<rect id="SVGID_95_" x="63" y="54.5" width="114" height="106"/>
				</defs>
				<clipPath id="SVGID_14_">
					<use xlink:href="#SVGID_95_"  overflow="visible"/>
				</clipPath>
				<g clip-path="url(#SVGID_14_)">
					<defs>
						<ellipse id="SVGID_97_" cx="120.4" cy="103.7" rx="56.5" ry="56.4"/>
					</defs>
					<clipPath id="SVGID_16_">
						<use xlink:href="#SVGID_97_"  overflow="visible"/>
					</clipPath>
					<g clip-path="url(#SVGID_16_)">
						<defs>
							<rect id="SVGID_99_" x="43" y="54.5" width="143" height="114"/>
						</defs>
						<clipPath id="SVGID_18_">
							<use xlink:href="#SVGID_99_"  overflow="visible"/>
						</clipPath>
						<rect x="58.8" y="42.4" clip-path="url(#SVGID_18_)" fill="#E9EEF2" width="123.1" height="122.7"/>
					</g>
				</g>
			</g>
		</g>
	</g>
</g>
<g>
	<defs>
		<rect id="SVGID_101_" y="-0.5" width="261" height="200"/>
	</defs>
	<clipPath id="SVGID_20_">
		<use xlink:href="#SVGID_101_"  overflow="visible"/>
	</clipPath>
	<g clip-path="url(#SVGID_20_)">
		<defs>
			<ellipse id="SVGID_103_" cx="123.5" cy="100.1" rx="51.2" ry="50"/>
		</defs>
		<clipPath id="SVGID_22_">
			<use xlink:href="#SVGID_103_"  overflow="visible"/>
		</clipPath>
		<rect x="67.3" y="45.1" clip-path="url(#SVGID_22_)" fill="#FFFFFF" width="112.5" height="110"/>
	</g>
</g>
<g>
	<defs>
		<rect id="SVGID_105_" y="-0.5" width="261" height="200"/>
	</defs>
	<clipPath id="SVGID_24_">
		<use xlink:href="#SVGID_105_"  overflow="visible"/>
	</clipPath>

		<ellipse clip-path="url(#SVGID_24_)" fill="none" stroke="#8FC857" stroke-width="9.36" stroke-miterlimit="10" cx="123.5" cy="100.1" rx="51.2" ry="50"/>
</g>
<g>
	<defs>
		<rect id="SVGID_107_" y="-0.5" width="261" height="200"/>
	</defs>
	<clipPath id="SVGID_26_">
		<use xlink:href="#SVGID_107_"  overflow="visible"/>
	</clipPath>
	<g clip-path="url(#SVGID_26_)">
		<defs>
			<polyline id="SVGID_109_" points="112,123.9 93.6,105.6 102.3,97.1 112.5,107.2 141.5,81.7 149.6,90.7 112,123.9 			"/>
		</defs>
		<clipPath id="SVGID_28_">
			<use xlink:href="#SVGID_109_"  overflow="visible"/>
		</clipPath>
		<rect x="88.6" y="76.7" clip-path="url(#SVGID_28_)" fill="#E9EEF2" width="66" height="52.2"/>
	</g>
</g>
<g>
	<defs>
		<rect id="SVGID_111_" y="-0.5" width="261" height="200"/>
	</defs>
	<clipPath id="SVGID_30_">
		<use xlink:href="#SVGID_111_"  overflow="visible"/>
	</clipPath>
	<g clip-path="url(#SVGID_30_)">
		<defs>
			<polyline id="SVGID_113_" points="114.6,121.3 96.2,103.1 104.8,94.5 115,104.6 144,79.1 152.2,88.2 114.6,121.3 			"/>
		</defs>
		<clipPath id="SVGID_32_">
			<use xlink:href="#SVGID_113_"  overflow="visible"/>
		</clipPath>
		<rect x="91.2" y="74.1" clip-path="url(#SVGID_32_)" fill="#8FC857" width="66" height="52.2"/>
	</g>
</g>
<g>
	<defs>
		<rect id="SVGID_115_" y="-0.5" width="261" height="200"/>
	</defs>
	<clipPath id="SVGID_34_">
		<use xlink:href="#SVGID_115_"  overflow="visible"/>
	</clipPath>
	<g clip-path="url(#SVGID_34_)">
		<defs>
			<rect id="SVGID_117_" x="31" y="36.5" width="167" height="132.8"/>
		</defs>
		<clipPath id="SVGID_36_">
			<use xlink:href="#SVGID_117_"  overflow="visible"/>
		</clipPath>
		<g clip-path="url(#SVGID_36_)" enable-background="new    ">
			<g>
				<defs>
					<rect id="SVGID_119_" x="61" y="36.5" width="32" height="7"/>
				</defs>
				<clipPath id="SVGID_38_">
					<use xlink:href="#SVGID_119_"  overflow="visible"/>
				</clipPath>
				<g clip-path="url(#SVGID_38_)">
					<defs>
						<path id="SVGID_121_" d="M73.8,31.1c-1.8-1.7-9.6-2.2-9.6-2.2c-3.1-0.3-3.1-1-0.1-1.6c0,0,7.5-1.1,9.6-3.1
							c1.2-1.2,2-7.9,2-7.9c0.4-3,1.4-3,2.1-0.1c0,0,1.4,6.5,2.9,8.1c1.7,1.7,8.2,2.8,8.2,2.8c3,0.7,2.9,1.5-0.1,1.9
							c0,0-6.3,0.4-8.1,2.1c-1.5,1.5-3,9.4-3,9.4c-0.6,2.9-1.4,2.9-1.8-0.1C75.9,40.4,75.3,32.6,73.8,31.1z"/>
					</defs>
					<clipPath id="SVGID_40_">
						<use xlink:href="#SVGID_121_"  overflow="visible"/>
					</clipPath>
					<g clip-path="url(#SVGID_40_)">
						<defs>
							<rect id="SVGID_123_" x="31" y="36.5" width="167" height="133"/>
						</defs>
						<clipPath id="SVGID_42_">
							<use xlink:href="#SVGID_123_"  overflow="visible"/>
						</clipPath>
						<rect x="56.9" y="9" clip-path="url(#SVGID_42_)" fill="#E9EEF2" width="39.3" height="38.6"/>
					</g>
				</g>
			</g>
		</g>
	</g>
</g>
<g>
	<defs>
		<rect id="SVGID_125_" y="-0.5" width="261" height="200"/>
	</defs>
	<clipPath id="SVGID_44_">
		<use xlink:href="#SVGID_125_"  overflow="visible"/>
	</clipPath>
	<g clip-path="url(#SVGID_44_)">
		<defs>
			<path id="SVGID_127_" d="M205.7,59.1c-1.2-1.2-4.6-1.2-4.6-1.2c-3.1-0.3-3.1-1.1-0.1-1.7c0,0,3.2-0.3,4.6-1.7
				c0.8-0.8,1-3.6,1-3.6c0.5-3,1.4-3,2.2-0.1c0,0,0.4,2.6,1.5,3.7c1.2,1.1,3.7,1.4,3.7,1.4c3,0.7,3,1.5-0.1,2c0,0-2.4,0-3.6,1.1
				c-1,1-1.6,4.6-1.6,4.6c-0.7,3-1.5,2.9-1.9-0.1C206.8,63.5,206.7,60.1,205.7,59.1z"/>
		</defs>
		<clipPath id="SVGID_46_">
			<use xlink:href="#SVGID_127_"  overflow="visible"/>
		</clipPath>
		<rect x="193.8" y="43.6" clip-path="url(#SVGID_46_)" fill="#E9EEF2" width="27.5" height="27.2"/>
	</g>
</g>
<g>
	<defs>
		<rect id="SVGID_129_" y="-0.5" width="261" height="200"/>
	</defs>
	<clipPath id="SVGID_48_">
		<use xlink:href="#SVGID_129_"  overflow="visible"/>
	</clipPath>
	<g clip-path="url(#SVGID_48_)">
		<defs>
			<path id="SVGID_131_" d="M67.3,25.9c-3.1-0.3-3.1-1-0.1-1.6c0,0,7.5-1.1,9.6-3.1c1.2-1.2,2-7.9,2-7.9c0.4-3,1.4-3,2.1-0.1
				c0,0,1.4,6.5,2.9,8.1c1.7,1.7,8.2,2.8,8.2,2.8c3,0.7,2.9,1.5-0.1,1.9c0,0-6.3,0.4-8.1,2.1c-1.5,1.5-3,9.4-3,9.4
				c-0.6,2.9-1.4,2.9-1.8-0.1c0,0-0.6-7.7-2.1-9.2C75,26.4,67.3,25.9,67.3,25.9z"/>
		</defs>
		<clipPath id="SVGID_50_">
			<use xlink:href="#SVGID_131_"  overflow="visible"/>
		</clipPath>
		<rect x="59.9" y="6" clip-path="url(#SVGID_50_)" fill="#8FC857" width="39.3" height="38.6"/>
	</g>
</g>
<g>
	<defs>
		<rect id="SVGID_133_" y="-0.5" width="261" height="200"/>
	</defs>
	<clipPath id="SVGID_52_">
		<use xlink:href="#SVGID_133_"  overflow="visible"/>
	</clipPath>
	<g clip-path="url(#SVGID_52_)">
		<defs>
			<path id="SVGID_135_" d="M147,14.8c-1.1-1.1-5.2-1.5-5.2-1.5c-2.2-0.3-2.2-0.8,0-1.2c0,0,3.8-0.4,5-1.6c0.7-0.7,1-4.1,1-4.1
				c0.3-2.2,0.9-2.2,1.6-0.1c0,0,0.8,3.5,1.8,4.4c1.1,1.1,4.4,1.7,4.4,1.7c2.2,0.6,2.1,1.2-0.1,1.4c0,0-3.2,0-4.2,1
				c-0.9,0.9-1.5,5-1.5,5c-0.4,2.2-1,2.2-1.3,0C148.4,19.9,148,15.7,147,14.8z"/>
		</defs>
		<clipPath id="SVGID_54_">
			<use xlink:href="#SVGID_135_"  overflow="visible"/>
		</clipPath>
		<rect x="135.1" y="-0.3" clip-path="url(#SVGID_54_)" fill="#8FC857" width="27.1" height="26.8"/>
	</g>
</g>
<g>
	<defs>
		<rect id="SVGID_137_" y="-0.5" width="261" height="200"/>
	</defs>
	<clipPath id="SVGID_56_">
		<use xlink:href="#SVGID_137_"  overflow="visible"/>
	</clipPath>
	<g clip-path="url(#SVGID_56_)">
		<defs>
			<path id="SVGID_139_" d="M196.4,5.6c-0.6-0.6-2.8-0.8-2.8-0.8c-1.2-0.2-1.2-0.4,0-0.6c0,0,2-0.2,2.7-0.8c0.4-0.4,0.5-2.2,0.5-2.2
				c0.1-1.2,0.5-1.2,0.8-0.1c0,0,0.4,1.8,1,2.4c0.6,0.6,2.4,0.9,2.4,0.9c1.2,0.3,1.1,0.6-0.1,0.7c0,0-1.7,0-2.2,0.6
				c-0.5,0.5-0.8,2.7-0.8,2.7c-0.2,1.2-0.5,1.1-0.7,0C197.1,8.3,196.9,6.1,196.4,5.6z"/>
		</defs>
		<clipPath id="SVGID_58_">
			<use xlink:href="#SVGID_139_"  overflow="visible"/>
		</clipPath>
		<rect x="187.7" y="-4.8" clip-path="url(#SVGID_58_)" fill="#8FC857" width="19.1" height="18.9"/>
	</g>
</g>
<g>
	<defs>
		<rect id="SVGID_141_" y="-0.5" width="261" height="200"/>
	</defs>
	<clipPath id="SVGID_60_">
		<use xlink:href="#SVGID_141_"  overflow="visible"/>
	</clipPath>
	<g clip-path="url(#SVGID_60_)">
		<defs>
			<path id="SVGID_143_" d="M1.6,16.6c-1.2-0.2-1.2-0.4,0-0.6c0,0,2-0.2,2.7-0.8c0.4-0.4,0.5-2.2,0.5-2.2c0.1-1.2,0.5-1.2,0.8-0.1
				c0,0,0.4,1.8,1,2.4c0.6,0.6,2.4,0.9,2.4,0.9c1.2,0.3,1.1,0.6-0.1,0.7c0,0-1.7,0-2.2,0.6c-0.5,0.5-0.8,2.7-0.8,2.7
				c-0.2,1.2-0.5,1.1-0.7,0c0,0-0.2-2.2-0.7-2.7C3.8,16.8,1.6,16.6,1.6,16.6z"/>
		</defs>
		<clipPath id="SVGID_62_">
			<use xlink:href="#SVGID_143_"  overflow="visible"/>
		</clipPath>
		<rect x="-4.3" y="7" clip-path="url(#SVGID_62_)" fill="#8FC857" width="19.1" height="18.9"/>
	</g>
</g>
<g>
	<defs>
		<rect id="SVGID_145_" y="-0.5" width="261" height="200"/>
	</defs>
	<clipPath id="SVGID_64_">
		<use xlink:href="#SVGID_145_"  overflow="visible"/>
	</clipPath>
	<g clip-path="url(#SVGID_64_)">
		<defs>
			<path id="SVGID_147_" d="M208.7,55.1c-1.2-1.2-4.6-1.2-4.6-1.2c-3.1-0.3-3.1-1.1-0.1-1.7c0,0,3.2-0.3,4.6-1.7
				c0.8-0.8,1-3.6,1-3.6c0.5-3,1.4-3,2.2-0.1c0,0,0.4,2.6,1.5,3.7c1.2,1.1,3.7,1.4,3.7,1.4c3,0.7,3,1.5-0.1,2c0,0-2.4,0-3.6,1.1
				c-1,1-1.6,4.6-1.6,4.6c-0.7,3-1.5,2.9-1.9-0.1C209.8,59.5,209.7,56.1,208.7,55.1z"/>
		</defs>
		<clipPath id="SVGID_66_">
			<use xlink:href="#SVGID_147_"  overflow="visible"/>
		</clipPath>
		<rect x="196.8" y="39.6" clip-path="url(#SVGID_66_)" fill="#8FC857" width="27.5" height="27.2"/>
	</g>
</g>
<g>
	<defs>
		<rect id="SVGID_149_" y="-0.5" width="261" height="200"/>
	</defs>
	<clipPath id="SVGID_68_">
		<use xlink:href="#SVGID_149_"  overflow="visible"/>
	</clipPath>
	<g clip-path="url(#SVGID_68_)">
		<defs>
			<path id="SVGID_151_" d="M26.7,67.9c-0.8-0.8-3.2-0.8-3.2-0.8c-2.1-0.2-2.1-0.7,0-1.2c0,0,2.2-0.2,3.2-1.2
				c0.6-0.6,0.7-2.5,0.7-2.5c0.3-2.1,1-2.1,1.5-0.1c0,0,0.3,1.8,1,2.5c0.8,0.8,2.5,1,2.5,1c2.1,0.5,2,1.1-0.1,1.4c0,0-1.7,0-2.5,0.8
				c-0.7,0.7-1.1,3.1-1.1,3.1c-0.5,2-1,2-1.3-0.1C27.5,70.9,27.4,68.6,26.7,67.9z"/>
		</defs>
		<clipPath id="SVGID_70_">
			<use xlink:href="#SVGID_151_"  overflow="visible"/>
		</clipPath>
		<rect x="17" y="55.7" clip-path="url(#SVGID_70_)" fill="#E9EEF2" width="22.1" height="21.8"/>
	</g>
</g>
<g>
	<defs>
		<rect id="SVGID_153_" y="-0.5" width="261" height="200"/>
	</defs>
	<clipPath id="SVGID_72_">
		<use xlink:href="#SVGID_153_"  overflow="visible"/>
	</clipPath>
	<g clip-path="url(#SVGID_72_)">
		<defs>
			<path id="SVGID_155_" d="M28.8,65.2c-0.8-0.8-3.2-0.8-3.2-0.8c-2.1-0.2-2.1-0.7,0-1.2c0,0,2.2-0.2,3.2-1.2
				c0.6-0.6,0.7-2.5,0.7-2.5c0.3-2.1,1-2.1,1.5-0.1c0,0,0.3,1.8,1,2.5c0.8,0.8,2.5,1,2.5,1c2.1,0.5,2,1.1-0.1,1.4c0,0-1.7,0-2.5,0.8
				c-0.7,0.7-1.1,3.1-1.1,3.1c-0.5,2-1,2-1.3-0.1C29.6,68.2,29.5,65.8,28.8,65.2z"/>
		</defs>
		<clipPath id="SVGID_74_">
			<use xlink:href="#SVGID_155_"  overflow="visible"/>
		</clipPath>
		<rect x="19.1" y="52.9" clip-path="url(#SVGID_74_)" fill="#8FC857" width="22.1" height="21.8"/>
	</g>
</g>
<g>
	<defs>
		<rect id="SVGID_157_" y="-0.5" width="261" height="200"/>
	</defs>
	<clipPath id="SVGID_76_">
		<use xlink:href="#SVGID_157_"  overflow="visible"/>
	</clipPath>
	<g clip-path="url(#SVGID_76_)">
		<defs>
			<path id="SVGID_159_" d="M254.9,88.2c-0.6-0.6-2.4-0.6-2.4-0.6c-1.6-0.2-1.6-0.6,0-0.9c0,0,1.7-0.2,2.4-0.9
				c0.4-0.4,0.5-1.8,0.5-1.8c0.3-1.5,0.7-1.6,1.2,0c0,0,0.2,1.4,0.8,1.9c0.6,0.6,1.9,0.7,1.9,0.7c1.6,0.4,1.5,0.8-0.1,1
				c0,0-1.2,0-1.9,0.6c-0.5,0.5-0.8,2.4-0.8,2.4c-0.4,1.5-0.8,1.5-1-0.1C255.5,90.5,255.4,88.8,254.9,88.2z"/>
		</defs>
		<clipPath id="SVGID_78_">
			<use xlink:href="#SVGID_159_"  overflow="visible"/>
		</clipPath>
		<rect x="246.3" y="77.8" clip-path="url(#SVGID_78_)" fill="#8FC857" width="19.1" height="18.9"/>
	</g>
</g>
<g>
	<defs>
		<rect id="SVGID_161_" y="-0.5" width="261" height="200"/>
	</defs>
	<clipPath id="SVGID_80_">
		<use xlink:href="#SVGID_161_"  overflow="visible"/>
	</clipPath>
	<g opacity="0.1" clip-path="url(#SVGID_80_)" enable-background="new    ">
		<g>
			<defs>
				<rect id="SVGID_163_" x="16" y="180.5" width="222" height="19"/>
			</defs>
			<clipPath id="SVGID_82_">
				<use xlink:href="#SVGID_163_"  overflow="visible"/>
			</clipPath>
			<g clip-path="url(#SVGID_82_)">
				<defs>
					<rect id="SVGID_165_" x="16" y="180.5" width="222" height="19"/>
				</defs>
				<clipPath id="SVGID_84_">
					<use xlink:href="#SVGID_165_"  overflow="visible"/>
				</clipPath>
				<g clip-path="url(#SVGID_84_)" enable-background="new    ">
					<g>
						<defs>
							<rect id="SVGID_167_" x="16" y="180.5" width="222" height="19"/>
						</defs>
						<clipPath id="SVGID_86_">
							<use xlink:href="#SVGID_167_"  overflow="visible"/>
						</clipPath>
						<g clip-path="url(#SVGID_86_)">
							<defs>
								<path id="SVGID_169_" d="M109.8,196c0-1.7,1.3-3,3-3h81.7c1.7,0,3,1.4,3,3c0,1.7-1.3,3-3,3h-81.7
									C111.2,199,109.8,197.6,109.8,196z"/>
							</defs>
							<clipPath id="SVGID_88_">
								<use xlink:href="#SVGID_169_"  overflow="visible"/>
							</clipPath>
							<g clip-path="url(#SVGID_88_)">
								<defs>
									<rect id="SVGID_171_" x="16" y="180.5" width="222" height="19"/>
								</defs>
								<clipPath id="SVGID_90_">
									<use xlink:href="#SVGID_171_"  overflow="visible"/>
								</clipPath>
								<rect x="104.8" y="188" clip-path="url(#SVGID_90_)" fill="#215885" width="97.7" height="16"/>
							</g>
						</g>
						<g clip-path="url(#SVGID_86_)">
							<defs>
								<path id="SVGID_173_" d="M51.3,196c0-1.7,1.4-3,3-3h32.6c1.7,0,3,1.4,3,3c0,1.7-1.4,3-3,3H54.3
									C52.7,199,51.3,197.6,51.3,196z"/>
							</defs>
							<clipPath id="SVGID_92_">
								<use xlink:href="#SVGID_173_"  overflow="visible"/>
							</clipPath>
							<g clip-path="url(#SVGID_92_)">
								<defs>
									<rect id="SVGID_175_" x="16" y="180.5" width="222" height="19"/>
								</defs>
								<clipPath id="SVGID_94_">
									<use xlink:href="#SVGID_175_"  overflow="visible"/>
								</clipPath>
								<rect x="46.3" y="188" clip-path="url(#SVGID_94_)" fill="#215885" width="48.6" height="16"/>
							</g>
						</g>
						<g clip-path="url(#SVGID_86_)">
							<defs>
								<path id="SVGID_177_" d="M16.2,183.9c0-1.7,1.3-3,3-3h125.2c1.7,0,3,1.4,3,3c0,1.7-1.3,3-3,3H19.2
									C17.5,186.9,16.2,185.6,16.2,183.9z"/>
							</defs>
							<clipPath id="SVGID_96_">
								<use xlink:href="#SVGID_177_"  overflow="visible"/>
							</clipPath>
							<g clip-path="url(#SVGID_96_)">
								<defs>
									<rect id="SVGID_179_" x="16" y="180.5" width="222" height="19"/>
								</defs>
								<clipPath id="SVGID_98_">
									<use xlink:href="#SVGID_179_"  overflow="visible"/>
								</clipPath>
								<rect x="11.2" y="175.9" clip-path="url(#SVGID_98_)" fill="#215885" width="141.2" height="16"/>
							</g>
						</g>
						<g clip-path="url(#SVGID_86_)">
							<defs>
								<path id="SVGID_181_" d="M169.3,183.9c0-1.7,1.4-3,3-3h61.8c1.7,0,3,1.4,3,3c0,1.7-1.4,3-3,3h-61.8
									C170.7,186.9,169.3,185.6,169.3,183.9z"/>
							</defs>
							<clipPath id="SVGID_100_">
								<use xlink:href="#SVGID_181_"  overflow="visible"/>
							</clipPath>
							<g clip-path="url(#SVGID_100_)">
								<defs>
									<rect id="SVGID_183_" x="16" y="180.5" width="222" height="19"/>
								</defs>
								<clipPath id="SVGID_102_">
									<use xlink:href="#SVGID_183_"  overflow="visible"/>
								</clipPath>
								<rect x="164.3" y="175.9" clip-path="url(#SVGID_102_)" fill="#215885" width="77.8" height="16"/>
							</g>
						</g>
					</g>
				</g>
			</g>
		</g>
	</g>
</g>
</svg>
