<?xml version="1.0" encoding="UTF-8" standalone="no"?>
<svg viewBox="0 0 42 39" version="1.1" xmlns="http://www.w3.org/2000/svg" xmlns:xlink="http://www.w3.org/1999/xlink" xmlns:sketch="http://www.bohemiancoding.com/sketch/ns">
    <!-- Generator: Sketch 3.2.2 (9983) - http://www.bohemiancoding.com/sketch -->
    <title>r-coin-2</title>
    <desc>Created with Sketch.</desc>
    <defs>
        <rect id="path-1" x="0" y="0" width="15.7428023" height="34.5" rx="4"></rect>
        <ellipse id="path-3" cx="22.0076175" cy="23.1459627" rx="19.0364683" ry="19"></ellipse>
        <ellipse id="path-4" cx="25.2939943" cy="23.1009317" rx="17.7043285" ry="17.4549689"></ellipse>
    </defs>
    <g id="SVG" stroke="none" stroke-width="1" fill="none" fill-rule="evenodd" sketch:type="MSPage">
        <g id="r-coin-2" sketch:type="MSArtboardGroup">
            <g id="coin" sketch:type="MSLayerGroup" transform="translate(-3.000000, -4.000000)">
                <g id="Oval-41-+-¢" transform="translate(0.163148, 0.500000)">
                    <g id="Coin-Shadow">
                        <mask id="mask-2" sketch:name="Mask" fill="white">
                            <use xlink:href="#path-1"></use>
                        </mask>
                        <use id="Mask" sketch:type="MSShapeGroup" xlink:href="#path-1"></use>
                        <g id="Oval-41">
                            <use fill="#E5E5E5" fill-rule="evenodd" sketch:type="MSShapeGroup" mask="url(#mask-2)" xlink:href="#path-3"></use>
                            <use fill="none" xlink:href="#path-3"></use>
                        </g>
                    </g>
                    <g id="Oval-41">
                        <use stroke="#8CCE54" stroke-width="3" fill="#F2FFE7" fill-rule="evenodd" sketch:type="MSShapeGroup" xlink:href="#path-4"></use>
                        <use stroke="none" fill="none" xlink:href="#path-4"></use>
                    </g>
                    <path d="M24.9411856,29.245935 L24.9411856,31.5711382 L25.8131369,31.5711382 L25.8131369,29.245935 C26.5136824,29.245935 27.1359661,29.1192425 27.6800068,28.8658537 C28.2240474,28.6124649 28.6898287,28.2733761 29.0773645,27.8485772 C29.4649003,27.4237784 29.7704528,26.9430921 29.9940312,26.4065041 C30.2176095,25.869916 30.359207,25.3258835 30.4188279,24.7743902 L28.5184214,24.7743902 C28.3991796,25.5345566 28.1197109,26.1754716 27.6800068,26.6971545 C27.2403027,27.2188373 26.6180189,27.5169373 25.8131369,27.5914634 L25.8131369,18.8495935 C26.5285876,18.8794039 27.1024301,19.0992527 27.5346816,19.5091463 C27.9669331,19.91904 28.2575806,20.4667987 28.4066328,21.152439 L30.3517548,21.152439 C30.2623234,20.481704 30.0909159,19.8966827 29.8375271,19.3973577 C29.5841383,18.8980327 29.2599546,18.4881452 28.8649661,18.1676829 C28.4699777,17.8472206 28.0153752,17.6050144 27.501145,17.4410569 C26.9869148,17.2770995 26.424251,17.1876695 25.8131369,17.1727642 L25.8131369,15.0487805 L24.9411856,15.0487805 L24.9411856,17.1727642 C24.1064931,17.2323851 23.3724219,17.4373289 22.7389499,17.7876016 C22.1054779,18.1378744 21.5763504,18.5924769 21.1515515,19.1514228 C20.7267526,19.7103686 20.4100214,20.3512836 20.2013483,21.074187 C19.9926751,21.7970903 19.8883401,22.5609716 19.8883401,23.3658537 C19.8883401,24.185641 20.0001276,24.9495222 20.223706,25.6575203 C20.4472843,26.3655184 20.7714681,26.9803497 21.196267,27.5020325 C21.6210658,28.0237153 22.1464671,28.4373291 22.7724865,28.7428862 C23.3985059,29.0484433 24.1213984,29.2161245 24.9411856,29.245935 L24.9411856,29.245935 Z M24.9411856,18.8495935 L24.9411856,27.5914634 C24.4045976,27.5467477 23.9425426,27.3976977 23.5550068,27.1443089 C23.167471,26.8909201 22.8507397,26.5704626 22.6048035,26.1829268 C22.3588673,25.795391 22.1800073,25.3556935 22.0682182,24.8638211 C21.956429,24.3719488 21.9005352,23.8726313 21.9005352,23.3658537 C21.9005352,22.8143604 21.9527027,22.2815066 22.0570393,21.7672764 C22.1613759,21.2530462 22.3290571,20.7909912 22.5600881,20.3810976 C22.7911191,19.9712039 23.1003978,19.6321152 23.4879336,19.3638211 C23.8754694,19.0955271 24.3598819,18.9241196 24.9411856,18.8495935 L24.9411856,18.8495935 Z" id="¢-2" fill="#8CCE54" sketch:type="MSShapeGroup"></path>
                </g>
            </g>
        </g>
    </g>
</svg>