<?xml version="1.0" encoding="UTF-8" standalone="no"?>
<svg viewBox="0 0 28 42" version="1.1" xmlns="http://www.w3.org/2000/svg" xmlns:xlink="http://www.w3.org/1999/xlink" xmlns:sketch="http://www.bohemiancoding.com/sketch/ns">
    <!-- Generator: Sketch 3.2.2 (9983) - http://www.bohemiancoding.com/sketch -->
    <title>r-coin-1</title>
    <desc>Created with Sketch.</desc>
    <defs>
        <path id="path-1" d="M1.92971449,4.89708469 L1.92971449,10.6011556 L8.21623558,12.3123768 L19.6462739,13.453191 L32.2193161,12.3123768 L41.3633468,10.6011556 L41.3633468,4.32667761 L28.7903046,6.60830595 L20.7892778,7.17871304 C20.7892778,7.17871304 12.7882509,6.60830595 12.7882509,6.60830595 L1.92971449,4.89708469 Z"></path>
        <path id="path-2" d="M41.1332962,9.46034138 L41.1332962,9.46034138 C41.1332962,11.3507742 32.3058364,12.8827839 21.702231,12.8827839 C10.5271236,12.8827839 1.69966386,11.3507742 1.69966386,9.46034138"></path>
        <path id="path-3" d="M1.55748042,3.52927527 L1.55748042,9.5253364"></path>
        <path id="path-4" d="M41.1332962,3.52927527 L41.1332962,9.5253364"></path>
        <path id="path-5" d="M41.3633468,3.75627052 C41.3633468,5.64670332 32.4079529,7.17871304 21.3607797,7.17871304 C10.3136065,7.17871304 1.35821257,5.64670332 1.35821257,3.75627052 C1.35821257,1.86645999 10.3136065,0.333828006 21.3607797,0.333828006 C32.4079529,0.333828006 41.3633468,1.86645999 41.3633468,3.75627052 L41.3633468,3.75627052"></path>
        <path id="path-6" d="M41.3633468,3.75627052 C41.3633468,5.64670332 32.4079529,7.17871304 21.3607797,7.17871304 C10.3136065,7.17871304 1.35821257,5.64670332 1.35821257,3.75627052 C1.35821257,1.86645999 10.3136065,0.333828006 21.3607797,0.333828006 C32.4079529,0.333828006 41.3633468,1.86645999 41.3633468,3.75627052 L41.3633468,3.75627052"></path>
    </defs>
    <g id="SVG" stroke="none" stroke-width="1" fill="none" fill-rule="evenodd" sketch:type="MSPage">
        <g id="r-coin-1" sketch:type="MSArtboardGroup">
            <g sketch:type="MSLayerGroup" transform="translate(-3.000000, -2.000000)" id="Small-Breakpoint-(Copy-is-up-to-date)">
                <g sketch:type="MSShapeGroup">
                    <g id="05---Small---Funding---Link-active">
                        <g id="Serve-Card-+-Illustration-2">
                            <g id="Rectangle-264-+-Coins" transform="translate(17.849613, 23.626815) rotate(63.000000) translate(-17.849613, -23.626815) translate(-4.150387, 15.126815)">
                                <g id="Coins-4-+-Coins-5" transform="translate(0.500960, 0.500000)">
                                    <g id="Path-1612" transform="translate(-0.000000, 6.000000)">
                                        <g id="path-1-link" fill="#ACE17D">
                                            <path d="M0.92971449,0.89708469 L0.92971449,6.6011556 L7.21623558,8.3123768 L18.6462739,9.453191 L31.2193161,8.3123768 L40.3633468,6.6011556 L40.3633468,0.32667761 L27.7903046,2.60830595 L19.7892778,3.17871304 L11.7882509,2.60830595 L0.92971449,0.89708469 L0.92971449,0.89708469 Z" id="path-1"></path>
                                        </g>
                                        <path d="M0.92971449,0.89708469 L0.92971449,6.6011556 L7.21623558,8.3123768 L18.6462739,9.453191 L31.2193161,8.3123768 L40.3633468,6.6011556 L40.3633468,0.32667761 L27.7903046,2.60830595 L19.7892778,3.17871304 L11.7882509,2.60830595 L0.92971449,0.89708469 L0.92971449,0.89708469 Z" id="path-1"></path>
                                    </g>
                                    <g id="Coins-5" transform="translate(-0.000000, 11.000000)">
                                        <g id="path-2-link" transform="translate(-0.000000, 0.000000)" stroke="#8CCE54" stroke-width="3">
                                            <path d="M40.1332962,0.46034138 L40.1332962,0.46034138 C40.1332962,2.3507742 31.3058364,3.8827839 20.702231,3.8827839 C9.5271236,3.8827839 0.69966386,2.3507742 0.69966386,0.46034138" id="path-2"></path>
                                        </g>
                                        <path d="M40.1332962,0.46034138 L40.1332962,0.46034138 C40.1332962,2.3507742 31.3058364,3.8827839 20.702231,3.8827839 C9.5271236,3.8827839 0.69966386,2.3507742 0.69966386,0.46034138" id="path-2"></path>
                                    </g>
                                    <g id="Path-1609" transform="translate(-0.000000, 5.000000)">
                                        <g id="path-3-link" stroke="#8CCE54" stroke-width="3">
                                            <path d="M0.55748042,0.52927527 L0.55748042,6.5253364" id="path-3"></path>
                                        </g>
                                        <path d="M0.55748042,0.52927527 L0.55748042,6.5253364" id="path-3"></path>
                                    </g>
                                    <g id="Path-1610" transform="translate(40.000000, 5.000000)">
                                        <g id="path-4-link" stroke="#8CCE54" stroke-width="3">
                                            <path d="M0.1332962,0.52927527 L0.1332962,6.5253364" id="path-4"></path>
                                        </g>
                                        <path d="M0.1332962,0.52927527 L0.1332962,6.5253364" id="path-4"></path>
                                    </g>
                                    <g id="Coins-6" transform="translate(-0.000000, 2.000000)">
                                        <g id="path-5-link" fill="#E0F6CD">
                                            <path d="M40.3633468,3.75627052 C40.3633468,5.64670332 31.4079529,7.17871304 20.3607797,7.17871304 C9.3136065,7.17871304 0.35821257,5.64670332 0.35821257,3.75627052 C0.35821257,1.86645999 9.3136065,0.333828006 20.3607797,0.333828006 C31.4079529,0.333828006 40.3633468,1.86645999 40.3633468,3.75627052 L40.3633468,3.75627052" id="path-5"></path>
                                        </g>
                                        <path d="M40.3633468,3.75627052 C40.3633468,5.64670332 31.4079529,7.17871304 20.3607797,7.17871304 C9.3136065,7.17871304 0.35821257,5.64670332 0.35821257,3.75627052 C0.35821257,1.86645999 9.3136065,0.333828006 20.3607797,0.333828006 C31.4079529,0.333828006 40.3633468,1.86645999 40.3633468,3.75627052 L40.3633468,3.75627052" id="path-5"></path>
                                    </g>
                                    <g id="Coins-4" transform="translate(0.000000, 1.000000)">
                                        <g id="path-6-link" transform="translate(-0.000000, 1.000000)" stroke="#8CCE54" stroke-width="3">
                                            <path d="M40.3633468,3.75627052 C40.3633468,5.64670332 31.4079529,7.17871304 20.3607797,7.17871304 C9.3136065,7.17871304 0.35821257,5.64670332 0.35821257,3.75627052 C0.35821257,1.86645999 9.3136065,0.333828006 20.3607797,0.333828006 C31.4079529,0.333828006 40.3633468,1.86645999 40.3633468,3.75627052 L40.3633468,3.75627052" id="path-6"></path>
                                        </g>
                                        <path d="M40.3633468,4.75627052 C40.3633468,6.64670332 31.4079529,8.17871304 20.3607797,8.17871304 C9.3136065,8.17871304 0.35821257,6.64670332 0.35821257,4.75627052 C0.35821257,2.86645999 9.3136065,1.33382801 20.3607797,1.33382801 C31.4079529,1.33382801 40.3633468,2.86645999 40.3633468,4.75627052 L40.3633468,4.75627052" id="path-6"></path>
                                    </g>
                                </g>
                            </g>
                        </g>
                    </g>
                </g>
            </g>
            <g id="Rectangle-264-+-Coins" sketch:type="MSLayerGroup" transform="translate(13.000000, 20.607072) rotate(-297.000000) translate(-13.000000, -20.607072) translate(-9.000000, 13.107072)">
                <g id="Coins-4-+-Coins-5" transform="translate(1.000000, 0.500000)">
                    <g id="Path-1612">
                        <use fill="#B5E28E" fill-rule="evenodd" sketch:type="MSShapeGroup" xlink:href="#path-1"></use>
                        <use fill="none" xlink:href="#path-1"></use>
                    </g>
                    <g id="Coins-5">
                        <use stroke="#8CCE54" stroke-width="3" stroke-linecap="round" sketch:type="MSShapeGroup" xlink:href="#path-2"></use>
                        <use stroke="none" xlink:href="#path-2"></use>
                    </g>
                    <g id="Path-1609">
                        <use stroke="#8CCE54" stroke-width="3" stroke-linecap="round" sketch:type="MSShapeGroup" xlink:href="#path-3"></use>
                        <use stroke="none" xlink:href="#path-3"></use>
                    </g>
                    <g id="Path-1610">
                        <use stroke="#8CCE54" stroke-width="3" stroke-linecap="round" sketch:type="MSShapeGroup" xlink:href="#path-4"></use>
                        <use stroke="none" xlink:href="#path-4"></use>
                    </g>
                    <g id="Coins-6">
                        <use fill="#F2FFE7" fill-rule="evenodd" sketch:type="MSShapeGroup" xlink:href="#path-5"></use>
                        <use fill="none" xlink:href="#path-5"></use>
                    </g>
                    <g id="Coins-4">
                        <use stroke="#8CCE54" stroke-width="3" sketch:type="MSShapeGroup" xlink:href="#path-6"></use>
                        <use stroke="none" xlink:href="#path-6"></use>
                    </g>
                </g>
            </g>
        </g>
    </g>
</svg>